<svg width="111" height="119" viewBox="0 0 111 119" fill="none" xmlns="http://www.w3.org/2000/svg">
<path d="M8.99777 69.6517C12.0253 87.5931 12.2942 97.8451 19.7509 115.847C20.0642 116.603 20.655 117.218 21.3965 117.565C23.0795 118.353 25.0811 117.604 25.834 115.905L26.0198 115.486C26.4596 114.493 26.4458 113.362 26.0094 112.368C21.4331 101.947 18.3693 89.1157 14.6213 66.8318C12.2139 51.3234 8.22408 25.0467 14.5795 14.1935C14.9534 13.555 15.4964 13.0397 16.1072 12.6221C18.9918 10.6496 22.9468 11.4375 24.8107 14.3935C28.168 19.718 30.1148 23.1795 31.7731 27.0711L40.4896 45.1185L48.3626 62.0379L58.485 81.4953L66.3763 95.0324C68.1409 98.0596 71.1922 100.114 74.6607 100.611L75.0323 100.665C77.594 101.032 80.2009 100.439 82.3522 99.0007C84.543 97.5359 86.1666 95.3079 86.4935 92.6929C86.9254 89.2377 86.9452 85.4179 87.1652 78.9573L86.5275 67.8294C86.4566 66.5937 84.6463 66.5628 84.5333 67.7953L83.5099 78.9573C83.1801 84.1793 82.6929 87.1656 82.1416 89.7095C81.5024 92.6592 78.8251 94.7488 75.807 94.7488C73.6015 94.7488 71.5509 93.615 70.3782 91.7471L67.4828 87.1351L62.9839 78.9573L53.705 59.782L45.5509 42.5806L37.3967 25.0972L32.2988 14.3771C30.0479 9.64385 25.5161 6.40512 20.309 5.8083L19.9601 5.76831C19.2145 5.68285 18.4623 5.67003 17.7142 5.73006C14.006 6.02757 10.6662 8.08754 8.73601 11.2677L8.56437 11.5505C8.10486 12.3077 7.71983 13.1014 7.51609 13.9633C6.13634 19.8005 4.78493 36.7587 8.99777 69.6517Z" fill="#3D5B4B"/>
<path d="M73.5353 17.3143C74.236 17.2856 74.6507 17.5135 75.2564 17.858C79.376 22.0504 82.2412 28.8327 83.5035 34.4865C83.6022 34.9041 83.7011 35.3216 83.8006 35.739C83.9541 36.3855 84.1051 37.0322 84.2481 37.6811C84.9007 40.6215 85.5923 42.5673 87.9193 44.5534C88.1432 44.7499 88.367 44.9464 88.5908 45.143C90.1155 46.449 92.0673 47.9284 94.141 48.0448C95.5274 47.9267 96.4582 47.5392 97.4353 46.5363C99.1307 44.5161 100.117 42.2146 101.096 39.7955C101.26 39.3964 101.425 38.9971 101.589 38.598C101.749 38.2061 101.749 38.2058 101.911 37.806C102.938 37.7057 102.938 37.7055 103.527 38.0523C104.297 41.3237 102.586 45.0789 100.955 47.8282C99.8304 49.6159 98.0778 51.0535 96.0481 51.6723C93.0729 52.2727 90.4225 51.0686 87.925 49.5515C87.1482 49.022 86.5248 48.421 85.8649 47.7531C85.7102 47.7201 85.5554 47.6872 85.396 47.6531C85.4604 47.9203 85.5246 48.1875 85.591 48.4627C85.9894 51.0574 85.5571 54.5743 84.0564 56.764C83.099 57.8942 81.8812 58.337 80.4401 58.4928C79.6616 58.3317 78.9666 58.068 78.2482 57.7301C78.221 57.8699 78.1935 58.0097 78.1654 58.1538C77.8293 59.6302 77.1469 60.6337 75.8861 61.4535C75.1969 61.8058 74.576 61.9503 73.7948 61.8066C71.0752 60.7648 69.8341 57.3176 68.6894 54.8923C67.7828 52.9057 67.7828 52.9055 66.3818 51.2631C65.7749 51.1518 65.7746 51.1522 65.2893 51.3252C64.0261 54.6172 64.4376 57.9711 64.8827 61.3873C64.9126 61.6273 64.9429 61.8674 64.9737 62.1147C65.0024 62.3286 65.0311 62.5425 65.0607 62.7629C65.0838 63.5138 64.9559 64.1846 64.5716 64.8393C63.3931 65.2495 63.3927 65.2496 62.9098 65.2713C62.1502 64.7856 61.85 64.2599 61.4819 63.4475C61.3768 63.2174 61.2716 62.9873 61.1633 62.7502C61.0544 62.5051 60.9455 62.2596 60.8333 62.007C60.7205 61.7568 60.6078 61.5065 60.4915 61.2487C59.7446 59.577 59.0582 57.8925 58.4312 56.1726C58.0937 55.2715 57.7074 54.4009 57.2974 53.5309C56.6702 52.0233 56.6702 52.0231 56.9977 51.0786C57.4171 50.3399 57.5732 50.234 58.3763 49.9288C58.7526 49.8722 58.7528 49.8725 59.1366 49.8148C59.977 50.4469 60.2907 51.1873 60.6687 52.1515C60.7691 52.404 60.8697 52.6566 60.9732 52.9167C61.0471 53.109 61.1208 53.3016 61.197 53.4997C61.242 53.2681 61.2869 53.0361 61.3332 52.7975C61.7873 50.6177 62.3506 48.5751 64.2132 47.1619C64.9968 46.7857 65.7341 46.6058 66.5941 46.7791C70.0218 48.0525 71.5097 51.8777 72.9273 54.969C73.4221 56.0344 73.8707 56.9334 74.7104 57.761C75.4603 57.2734 75.8884 56.8475 76.2568 56.0265C76.2061 55.4002 76.2058 55.3999 75.9898 54.7498C75.8854 54.3799 75.8855 54.3797 75.779 54.0023C75.7024 53.7461 75.6255 53.4897 75.5465 53.2258C74.5911 50.0074 74.1301 46.7741 75.7267 43.6658C76.713 42.15 77.6516 41.3681 79.4126 40.9444C79.8745 40.8694 79.8748 40.8695 80.3439 40.9697C80.1336 40.7147 80.1332 40.7146 79.9186 40.4544C79.2212 39.5484 78.6876 38.5613 78.1456 37.5567C78.0355 37.3531 77.9254 37.1494 77.8119 36.9397C76.6484 34.7551 75.6342 32.5089 74.6849 30.2235C74.5828 29.9817 74.4804 29.7399 74.3753 29.4909C73.6112 27.6331 73.0141 25.7698 72.5172 23.8234C72.3972 23.3562 72.2714 22.8905 72.1455 22.4248C72.0668 22.1225 71.9889 21.8199 71.911 21.5174C71.8412 21.2499 71.771 20.9821 71.6991 20.7065C71.5593 19.7923 71.6144 19.2027 71.8262 18.3054C72.3746 17.6902 72.7625 17.5513 73.5353 17.3143ZM79.7223 43.9773C78.569 44.3406 78.5687 44.3406 77.9501 46.5107C77.5504 48.7374 78.2857 51.9177 79.4643 53.8596C79.9383 54.4363 80.1745 54.7095 80.9197 54.828C81.4484 54.6766 81.4485 54.6765 81.7685 54.2204C83.1762 51.3983 83.059 47.4481 82.3505 44.4462C82.0852 43.8488 81.2775 43.7255 81.2775 43.7255C81.2678 43.7257 80.6112 43.7462 79.7223 43.9773ZM76.1476 24.7345C76.6823 27.0018 77.6516 29.1677 78.6797 31.2474C78.7834 31.4537 78.8845 31.654 78.9852 31.8542C79.4902 32.8618 79.9334 33.8257 80.7066 34.6555C80.0952 31.9432 79.1922 29.4127 77.871 26.9708C77.7766 26.8002 77.6849 26.6345 77.5932 26.4689C77.2838 25.9078 76.9652 25.3734 76.6165 24.8344C76.3797 24.7839 76.3796 24.784 76.1476 24.7345Z" fill="#3D5B4B"/>
<path d="M6.94876 115.415L6.56202 115.501C5.7989 115.671 5.1563 114.917 5.43897 114.188C15.7021 87.7211 25.0046 71.4629 40.2084 52.7322C59.9254 29.1249 68.2775 19.6653 84.3211 3.41922C84.5274 3.21025 84.7211 2.9825 84.8935 2.74475L85.1237 2.42729C85.5734 1.80721 84.8884 1.00066 84.2037 1.344C83.7438 1.57464 83.3143 1.87985 82.9435 2.23659C63.5743 20.8715 55.4104 29.4505 37.6778 50.1943C22.0416 68.4076 16.5933 78.7211 6.18591 100.389L0.948907 113.519C0.378571 114.949 0.758572 116.583 1.90139 117.614L2.01312 117.715C2.53155 118.183 3.18772 118.47 3.88321 118.534L4.15529 118.559C5.22468 118.656 6.25532 118.132 6.80663 117.211L7.4586 116.121C7.54159 115.982 7.54817 115.811 7.47604 115.666C7.37886 115.471 7.16135 115.367 6.94876 115.415Z" fill="#3D5B4B"/>
</svg>
