<svg width="412" height="412" viewBox="0 0 412 412" fill="none" xmlns="http://www.w3.org/2000/svg">
<g clip-path="url(#clip0_120_10238)">
<path d="M412 0H0V412H412V0Z" fill="#F4F4F4"/>
<path d="M181.137 35.0167C181.137 35.0167 201.209 62.6166 209.163 67.2079C209.004 67.6883 205 73.294 205 73.294C205 73.294 187.542 57.7583 181.297 49.9105C175.051 42.0627 175.531 37.0981 175.531 37.0981L181.137 35.0167Z" fill="#5885DD"/>
<path d="M179.215 87.3868L178.147 92.512H193.472L192.668 90.3762L183.271 87.1733L180.29 87.3299L179.215 87.3868Z" fill="black"/>
<path d="M114.299 92.7256L115.366 87.6003H108.533L107.852 89.1083L99.4006 90.8032L100.205 92.939L114.299 92.7256Z" fill="black"/>
<path d="M150.386 75.6424L176.439 61.1218L177.934 88.0271L183.271 87.1734L184.126 48.3094L152.949 60.2673L150.386 75.6424Z" fill="#0D184C"/>
<path d="M140.778 49.3774V85.6788L112.804 85.0385L111.522 94.0069H149.105C149.105 94.0069 156.792 70.518 156.365 61.1219C156.366 63.2569 140.778 49.3774 140.778 49.3774Z" fill="#1B2463"/>
<path d="M194.91 30.0521C194.91 30.0521 199.234 30.3727 200.515 27.3296C201.797 24.2866 199.875 22.8454 197.633 22.365C195.391 21.8846 195.871 17.721 190.907 16.5995C185.942 15.4789 181.137 23.3258 183.22 27.6502C184.82 28.2904 194.91 30.0521 194.91 30.0521Z" fill="#171E3A"/>
<path d="M186.101 27.1689C186.101 27.1689 186.422 24.9268 184.499 25.0867C182.578 25.2465 183.218 27.6493 183.218 27.6493L177.719 28.877C177.839 31.5822 178.332 34.1795 179.374 36.6177L185.14 33.7345C185.14 33.7345 185.941 37.7383 187.702 39.1795C193.788 37.0973 196.831 31.3317 197.792 27.1681C197.152 27.9698 188.504 28.9306 186.101 27.1689Z" fill="#ED9F5F"/>
<path d="M209.163 67.2079L205 73.2931L217.011 76.9237L219.574 69.0223L209.163 67.2079Z" fill="#D87E3A"/>
<path d="M200.943 168.907C191.929 168.907 184.62 159.103 184.62 147.01C184.62 134.917 191.928 125.113 200.943 125.113C200.951 125.113 200.96 125.113 200.968 125.113C202.262 125.116 203.332 124.117 203.332 122.822V98.9525C203.332 95.5905 200.606 92.8647 197.244 92.8647H97.9449C94.583 92.8647 91.8572 95.5905 91.8572 98.9525V197.456C91.8572 200.818 94.583 203.544 97.9449 203.544H121.127C124.769 203.544 127.439 200.308 126.987 196.695C126.924 196.197 126.892 195.693 126.892 195.182C126.892 186.167 136.696 178.86 148.789 178.86C160.882 178.86 170.686 186.168 170.686 195.182C170.686 195.693 170.654 196.197 170.592 196.695C170.14 200.308 172.809 203.544 176.451 203.544H197.245C200.607 203.544 203.333 200.818 203.333 197.456V171.197C203.333 169.903 202.262 168.903 200.969 168.907C200.959 168.907 200.951 168.907 200.943 168.907Z" fill="#8869B9"/>
<path d="M200.967 168.907C200.959 168.907 200.951 168.907 200.942 168.907C192.693 168.907 185.878 160.696 184.778 150.037V150.038C174.699 154.017 163.15 156.277 150.876 156.277C126.304 156.277 104.642 147.22 91.8562 133.445V197.455C91.8562 200.817 94.582 203.543 97.9439 203.543H121.126C124.768 203.543 127.438 200.307 126.986 196.694C126.923 196.196 126.891 195.692 126.891 195.182C126.891 186.166 136.695 178.859 148.788 178.859C160.881 178.859 170.685 186.167 170.685 195.182C170.685 195.692 170.653 196.196 170.591 196.694C170.139 200.307 172.808 203.543 176.451 203.543H197.244C200.606 203.543 203.332 200.817 203.332 197.455V171.197C203.332 169.903 202.261 168.903 200.967 168.907Z" fill="#6B4FA3"/>
<path d="M211.801 71.4005L208.623 93.1623C208.251 95.7093 206.292 97.7108 203.763 98.1912C196.446 99.5797 190.061 107.311 188.586 117.406C187.112 127.501 191.021 136.735 197.634 140.158C199.92 141.342 201.225 143.82 200.853 146.366L197.561 168.916C197.077 172.23 199.371 175.309 202.684 175.792L227.509 179.417C228.789 179.604 229.934 178.689 230.117 177.408C230.118 177.4 230.119 177.392 230.12 177.384C231.423 168.464 242.179 162.649 254.145 164.396C266.112 166.144 274.756 174.792 273.454 183.712C273.453 183.72 273.452 183.728 273.451 183.736C273.261 185.016 274.095 186.219 275.376 186.406L300.988 190.146C304.302 190.63 307.381 188.336 307.865 185.022L322.105 87.5056C322.589 84.1915 320.295 81.113 316.981 80.6293L218.677 66.276C215.363 65.7924 212.285 68.0864 211.801 71.4005Z" fill="#F180BE"/>
<path d="M316.981 80.6317L316.615 80.5781C314.697 103.704 296.078 127.23 267.764 138.991C238.274 151.24 207.177 147.017 189.771 130.442C191.352 134.834 194.101 138.33 197.635 140.158C199.92 141.342 201.226 143.82 200.854 146.366L197.561 168.916C197.078 172.23 199.372 175.308 202.685 175.792L227.51 179.417C228.79 179.604 229.935 178.689 230.118 177.408C230.118 177.4 230.12 177.392 230.121 177.384C231.424 168.463 242.18 162.649 254.146 164.396C266.112 166.144 274.757 174.792 273.454 183.712C273.453 183.72 273.452 183.728 273.451 183.736C273.261 185.016 274.095 186.219 275.376 186.406L300.988 190.146C304.302 190.63 307.381 188.336 307.864 185.023L322.105 87.5063C322.589 84.1938 320.295 81.1154 316.981 80.6317Z" fill="#E26DB3"/>
<path d="M140.778 49.3775C140.778 49.3775 148.252 35.9248 157.22 31.8675C166.188 27.8101 177.719 28.878 177.719 28.878C177.719 28.878 179.428 48.3104 206.12 71.5859C206.12 72.0127 202.704 77.138 202.704 77.138C202.704 77.138 180.923 63.0443 173.663 52.5812C174.09 52.7946 157.007 62.6175 157.007 62.6175L140.778 49.3775Z" fill="#80A4F8"/>
<path d="M173.663 52.5803C173.663 52.5803 170.566 49.5909 169.446 45.587C168.164 48.9506 170.406 55.3564 170.406 55.3564L173.663 52.5803Z" fill="#5885DD"/>
<path d="M206.12 71.5851C206.12 71.5851 211.886 73.7736 213.488 73.1334C212.047 74.7352 209.804 75.3755 209.804 75.3755L213.808 81.3009C213.808 81.3009 206.174 81.3009 202.704 77.1372C202.437 76.9773 206.12 71.5851 206.12 71.5851Z" fill="#ED9F5F"/>
<path d="M98.1853 381.538C98.1853 383.808 84.9362 385.648 68.5922 385.648C52.2481 385.648 38.999 383.808 38.999 381.538C38.999 379.268 52.2481 377.428 68.5922 377.428C84.9362 377.428 98.1853 379.268 98.1853 381.538Z" fill="#DBDBDB"/>
<path d="M353.84 389.759C370.184 389.759 383.434 387.918 383.434 385.648C383.434 383.378 370.184 381.538 353.84 381.538C337.497 381.538 324.247 383.378 324.247 385.648C324.247 387.918 337.497 389.759 353.84 389.759Z" fill="#DBDBDB"/>
<path d="M346.629 258.444C346.629 258.444 336.25 260.011 332.921 254.136C329.592 248.261 333.312 235.729 333.312 235.729L327.046 235.533C327.046 235.533 321.563 251.591 327.242 259.228C332.921 266.865 344.279 265.691 344.279 265.691L346.629 258.444Z" fill="#77C0E5"/>
<path d="M332.179 226.876L305.745 219.767C304.91 219.543 304.442 218.68 304.668 217.846C304.67 217.841 304.671 217.835 304.672 217.83C307.013 209.125 299.444 199.521 287.765 196.381C276.087 193.24 264.722 197.752 262.381 206.457C262.38 206.462 262.379 206.468 262.377 206.473C262.154 207.308 261.317 207.82 260.482 207.596L234.817 200.694C231.976 199.93 229.054 201.614 228.29 204.455L220.562 233.194C220.333 234.045 219.445 234.535 218.605 234.271C218.484 234.233 218.362 234.198 218.239 234.165C209.958 231.938 200.838 239.084 197.869 250.125C194.9 261.167 199.205 271.922 207.486 274.15C207.609 274.183 207.733 274.213 207.856 274.241C208.715 274.435 209.237 275.304 209.008 276.154L202.314 301.049C201.55 303.89 203.234 306.812 206.075 307.576L303.437 333.759C306.277 334.523 309.2 332.839 309.964 329.998L335.94 233.405C336.704 230.563 335.02 227.641 332.179 226.876Z" fill="#FF8E88"/>
<path d="M280.311 280.142C243.72 280.142 212.43 265.642 199.741 245.144C198.979 246.69 198.344 248.356 197.869 250.124C194.9 261.166 199.205 271.922 207.486 274.149C207.609 274.182 207.733 274.212 207.856 274.24C208.715 274.434 209.237 275.303 209.008 276.154L202.314 301.048C201.55 303.889 203.234 306.811 206.075 307.575L303.437 333.758C306.277 334.522 309.2 332.838 309.964 329.997L325.561 271.995C312.392 277.161 296.898 280.142 280.311 280.142Z" fill="#F27977"/>
<path d="M211.007 276.294C202.074 277.508 193.512 268.778 191.884 256.796C190.255 244.812 196.176 234.114 205.108 232.9C207.279 232.609 208.813 230.595 208.518 228.425L205.009 202.608C204.725 200.522 202.804 199.06 200.717 199.345L175.227 202.81C173.556 203.037 171.935 202.14 171.244 200.601C168.121 193.638 158.731 189.382 148.358 190.793C137.984 192.203 130.072 198.811 128.92 206.355C128.665 208.022 127.347 209.319 125.676 209.546C119.277 210.416 104.718 212.395 97.8095 213.334C95.7231 213.617 94.2663 215.538 94.5506 217.624L108.432 319.738C108.715 321.825 110.637 323.287 112.723 323.002L215.626 309.014C217.712 308.731 219.174 306.809 218.89 304.723L215.487 279.695C215.192 277.526 213.177 275.995 211.007 276.294Z" fill="#80A4F8"/>
<path d="M215.487 279.695C215.192 277.526 213.176 275.995 211.007 276.294C208.426 276.645 205.876 276.161 203.515 275.012C191.162 281.44 176.441 285.173 160.635 285.173C136.688 285.173 115.228 276.607 100.729 263.076L108.432 319.737C108.715 321.824 110.637 323.286 112.723 323.001L215.626 309.013C217.712 308.73 219.174 306.808 218.89 304.722L215.487 279.695Z" fill="#5A88E2"/>
<path d="M344.475 241.407C344.475 241.407 343.496 229.658 354.07 229.853C364.645 230.049 367.582 241.603 367.582 251.394C367.582 261.186 364.841 290.56 364.841 290.56H351.133L344.475 241.407Z" fill="#171E3A"/>
<path d="M341.195 301.085L342.811 380.934H348.099L348.197 311.121L350.253 311.317C350.253 311.317 355.638 346.174 368.054 380.195C368.563 380.639 373.236 379.145 373.236 379.145C373.264 379.464 366.614 358.435 362.884 337.557C360.76 325.672 360.092 318.207 359.555 313.568C358.698 306.176 359.702 304.609 357.792 299.958C354.854 297.414 341.195 301.085 341.195 301.085Z" fill="#171E3A"/>
<path d="M78.0541 294.917L74.5405 287.569L76.7769 262.333L80.9298 287.889L78.0541 294.917Z" fill="#8862B5"/>
<path d="M73.2627 258.499C73.2627 258.499 93.0692 255.624 97.5419 243.005C98.1805 243.644 102.333 247.318 102.333 247.318C102.333 247.318 95.3055 263.77 85.5617 266.645C85.083 267.124 73.2627 258.499 73.2627 258.499Z" fill="#77C0E5"/>
<path d="M68.6301 242.366C68.6301 242.366 65.2756 240.929 64.9567 243.804C64.637 246.679 68.471 246.999 68.471 246.999L67.5127 256.583L76.9368 257.222L77.0967 249.554L83.3261 247.797C83.3261 247.797 79.9716 237.095 75.9785 232.464C74.8603 230.387 67.034 237.255 67.034 237.255L68.6301 242.366Z" fill="#CC7B44"/>
<path d="M71.8247 241.887L70.0679 243.963C70.0679 243.963 68.3112 241.887 66.7134 242.047C65.1165 242.207 64.9567 243.803 64.9567 243.803C64.9567 243.803 60.8037 241.088 62.2416 237.894C63.6795 234.699 67.193 234.539 67.193 234.539L71.0262 231.185C71.0262 231.185 69.7482 227.032 73.1027 226.393C76.4572 225.755 77.0958 234.06 77.0958 234.06C77.0958 234.06 70.0679 234.061 71.8247 241.887Z" fill="#171E3A"/>
<path d="M85.2419 258.499C84.7632 258.339 71.3452 253.068 60.0045 256.103C58.7264 256.741 53.4553 293.958 53.4553 293.958L74.2201 296.673L83.3245 274.63C83.3245 274.63 89.2342 282.297 98.8182 281.498C108.402 280.7 115.11 270.956 115.11 270.956L112.076 267.921C112.076 267.921 104.408 271.276 96.422 268.879C88.4366 266.486 85.2419 258.499 85.2419 258.499Z" fill="#A2DDFF"/>
<path d="M112.077 267.923L115.112 270.958L117.029 268.243C117.029 268.243 121.661 266.486 122.778 260.735C122.778 261.215 115.751 264.409 115.751 264.409V260.096L113.514 265.527L112.077 267.923Z" fill="#CC7B44"/>
<path d="M97.5417 243.005V237.894L102.653 238.532L99.2985 240.449C99.2985 240.449 103.451 245.4 102.333 247.317C102.014 247.318 97.5417 243.005 97.5417 243.005Z" fill="#CC7B44"/>
<path d="M53.4562 293.959L50.4214 306.498L51.6195 342.516L51.8593 378.935H57.8489L59.5258 342.516L59.8455 308.974L63.0401 309.852L67.4279 339.163L67.4329 378.696H72.7032L75.335 341.079L74.221 296.675L53.4562 293.959Z" fill="#272D77"/>
<path d="M52.6973 378.855V382.209H64.9164L55.6925 378.615L52.6973 378.855Z" fill="#171E3A"/>
<path d="M67.7319 378.555L68.0319 382.209H80.251L71.0263 378.615L67.7319 378.555Z" fill="#171E3A"/>
<path d="M62.4006 255.944C62.4006 255.944 67.1922 252.11 72.6232 253.388C78.0542 254.666 84.6025 259.137 84.6025 259.137L62.4006 255.944Z" fill="#A2DDFF"/>
<path d="M349.175 233.574C349.175 233.574 340.951 239.253 342.125 251.003C348.195 251.982 349.566 251.199 349.566 251.199L348.979 260.598L357.203 262.165L355.637 249.632C355.637 249.632 359.553 248.456 359.553 245.911C359.553 243.366 356.224 243.952 356.224 243.952C356.224 243.952 347.608 238.47 349.175 233.574Z" fill="#FFBC80"/>
<path d="M355.601 280.386C358.279 276.967 360.372 273.027 361.847 269.777C363.389 266.383 361.42 262.431 357.791 261.577L357.79 261.579L346.629 258.444C346.629 258.444 339.432 268.773 338.404 271.711C338.166 272.392 338.287 275.47 339.433 278.761C332.824 280.524 322.067 276.146 318.235 270.781C318.235 270.39 315.493 274.502 315.493 274.502C315.493 274.502 327.036 287.25 340.103 288.347C341.147 291.002 341.195 301.086 341.195 301.086C341.195 301.086 351.33 302.505 357.792 299.96C358.575 299.764 355.05 292.322 355.05 292.322L355.601 280.386Z" fill="#A2DDFF"/>
<path d="M318.234 270.781L316.863 264.123L316.276 267.844C316.276 267.844 310.793 263.731 307.268 262.948C306.876 267.648 315.492 274.502 315.492 274.502L318.234 270.781Z" fill="#FFBC80"/>
<path d="M348.293 387.788L348.097 380.934H342.809L332.137 387.886L344.67 385.928L344.474 387.69C344.474 387.69 348.293 387.886 348.293 387.788Z" fill="#FF438B"/>
<path d="M374.743 386.066L373.066 378.976L368.388 379.932L359.09 388.636L371.09 384.525L371.696 386.515C371.696 386.515 374.632 386.123 374.743 386.066Z" fill="#FF438B"/>
<path d="M348.587 259.032L357.204 258.053L357.791 261.58L348.587 259.032Z" fill="#77C0E5"/>
<path d="M343.3 287.818C343.3 287.818 352.112 287.818 355.441 284.881C355.244 285.077 355.6 280.386 355.6 280.386C355.6 280.386 348.784 287.231 343.3 287.818Z" fill="#77C0E5"/>
<path d="M209.983 370.852C263.101 370.852 306.162 369.564 306.162 367.975C306.162 366.385 263.101 365.097 209.983 365.097C156.865 365.097 113.804 366.385 113.804 367.975C113.804 369.564 156.865 370.852 209.983 370.852Z" fill="#DBDBDB"/>
</g>
<defs>
<clipPath id="clip0_120_10238">
<rect width="412" height="412" fill="white"/>
</clipPath>
</defs>
</svg>
