<svg width="412" height="412" viewBox="0 0 412 412" fill="none" xmlns="http://www.w3.org/2000/svg">
<path d="M191.799 335.658C191.868 322.852 173.942 312.373 151.759 312.253C129.577 312.133 111.538 322.418 111.469 335.224C111.4 348.031 129.327 358.51 151.509 358.629C173.692 358.749 191.73 348.465 191.799 335.658Z" fill="#F2F2F2"/>
<path d="M289.447 341.719L200.505 290.387C198.602 289.287 198.84 287.368 201.038 286.099L206.088 283.183C208.286 281.914 211.611 281.777 213.515 282.875L302.457 334.207C304.36 335.306 304.122 337.226 301.924 338.495L296.874 341.41C294.676 342.68 291.35 342.818 289.447 341.719Z" fill="#F2F2F2"/>
<path d="M298.194 89.5193L216.352 42.2679C214.815 41.3804 213.428 41.3549 212.347 41.9688L204.274 46.6392L213.778 54.0297L216.102 53.4405V247.384C216.102 251.932 218.867 257.217 222.278 259.186L294.038 311.713V314.95L302.391 310.074L302.39 310.041C303.601 309.236 304.37 307.553 304.37 305.172V101.321C304.372 96.773 301.606 91.4887 298.194 89.5193Z" fill="#999999"/>
<path d="M285.679 106.834V97.681L277.631 103.728L242.457 88.9862L216.102 69.8043V53.4372L213.767 54.0206L204.281 46.64L212.35 41.9696C213.434 41.3648 214.81 41.3854 216.353 42.2613L298.19 89.5284C300.442 90.8212 302.402 93.552 303.465 96.5555L285.679 106.834Z" fill="#E6E6E6"/>
<path d="M290.071 314.579L208.229 267.328C204.818 265.358 202.052 260.074 202.052 255.526V51.6738C202.052 47.1253 204.818 45.0348 208.229 47.0042L290.071 94.2557C293.483 96.2259 296.248 101.509 296.248 106.058V309.909C296.248 314.457 293.483 316.549 290.071 314.579Z" fill="#CCCCCC"/>
<path d="M203.857 256.729V52.5547C203.857 49.2397 205.872 47.7153 208.358 49.1515L289.94 96.2522C292.427 97.6876 294.443 101.539 294.443 104.854V309.028C294.443 312.343 292.427 313.866 289.94 312.432L208.358 265.33C205.872 263.895 203.857 260.044 203.857 256.729Z" fill="#333333"/>
<path d="M292.049 107.021V304.794C292.049 307.737 289.972 308.899 287.426 307.43L210.883 263.238C208.321 261.758 206.242 258.175 206.242 255.234V57.4814C206.242 54.5405 208.32 53.3556 210.883 54.8355L224.866 62.9091C225.45 63.2461 225.963 63.9852 226.125 64.7227L226.772 67.6776C227.259 70.508 229.481 73.6548 232.081 75.1562L266.208 94.8597C268.808 96.361 271.048 95.7883 271.517 93.5108L272.165 91.3041C272.326 90.7537 272.84 90.607 273.423 90.944L287.425 99.0275C289.972 100.497 292.049 104.079 292.049 107.021Z" fill="#80C5FF"/>
<path d="M274.885 156.114C276.226 156.888 277.305 158.758 277.301 160.304L277.277 168.676C277.273 170.216 276.186 170.841 274.846 170.067L225.772 141.734C224.432 140.961 223.352 139.085 223.356 137.544L223.38 129.173C223.384 127.627 224.471 127.007 225.812 127.781L274.885 156.114Z" fill="#57B2FF"/>
<path d="M274.885 185.398C276.226 186.172 277.305 188.047 277.301 189.588L277.277 197.966C277.272 199.507 276.186 200.126 274.846 199.352L225.772 171.02C224.432 170.246 223.352 168.375 223.356 166.835L223.38 158.458C223.384 156.917 224.471 156.292 225.812 157.066L274.885 185.398Z" fill="#57B2FF"/>
<path d="M206.25 179.547V193.718L202.048 191.292V177.12L206.25 179.547Z" fill="#B3B3B3"/>
<path d="M277.309 224.3L277.29 230.984C277.271 233.037 275.815 233.877 274.023 232.851L206.25 193.718V179.547L274.06 218.68C275.852 219.726 277.309 222.228 277.309 224.3Z" fill="#57B2FF"/>
<path d="M237.881 235.247C239.173 235.993 240.218 237.805 240.214 239.289L240.149 262.234C240.145 263.719 239.092 264.313 237.8 263.567L217.832 252.039C216.54 251.293 215.499 249.49 215.503 248.005L215.569 225.06C215.573 223.575 216.621 222.973 217.913 223.718L237.881 235.247Z" fill="#57B2FF"/>
<path d="M274.972 256.622C276.264 257.369 277.305 259.177 277.301 260.662L277.236 283.607C277.232 285.092 276.184 285.688 274.892 284.942L254.924 273.414C253.632 272.668 252.587 270.862 252.591 269.377L252.656 246.432C252.66 244.947 253.713 244.347 255.004 245.093L274.972 256.622Z" fill="#57B2FF"/>
<path d="M273.54 110.355C275.623 111.558 277.308 114.477 277.301 116.876L277.245 136.517C277.238 138.912 275.543 139.878 273.459 138.675L216.784 105.954C214.7 104.751 213.015 101.833 213.022 99.4387L213.079 79.7978C213.085 77.3975 214.781 76.4318 216.865 77.6348L273.54 110.355Z" fill="#57B2FF"/>
<path d="M206.25 118.234V156.713L202.048 154.286V115.807L206.25 118.234Z" fill="#B3B3B3"/>
<path d="M212.523 125.609L212.43 156.546C212.43 158.599 210.974 159.421 209.163 158.394L206.25 156.714V118.235L209.275 119.99C211.085 121.035 212.523 123.555 212.523 125.609Z" fill="#57B2FF"/>
<path d="M235.203 72.2903C235.203 73.8642 234.091 74.4978 232.72 73.706C231.349 72.9141 230.237 70.9966 230.237 69.4236C230.237 67.8498 231.349 67.2161 232.72 68.008C234.091 68.799 235.203 70.7165 235.203 72.2903Z" fill="#666666"/>
<path d="M234.08 71.6426C234.08 72.5045 233.472 72.8523 232.72 72.4188C231.969 71.9846 231.36 70.934 231.36 70.0721C231.36 69.2093 231.969 68.8624 232.72 69.2967C233.472 69.7293 234.08 70.7799 234.08 71.6426Z" fill="#333333"/>
<path d="M261.075 83.7307L236.792 69.7112C236.392 69.4805 236.068 68.8608 236.068 68.3277V67.3447C236.068 66.8115 236.392 66.566 236.792 66.7975L261.075 80.8171C261.475 81.0478 261.799 81.6674 261.799 82.2006V83.1828C261.799 83.7167 261.475 83.9614 261.075 83.7307Z" fill="black"/>
<path d="M302.103 132.738C301.622 132.458 300.955 132.498 300.218 132.924C298.754 133.769 297.573 135.815 297.578 137.497L297.646 161.727C297.649 162.557 297.945 163.145 298.422 163.422L299.891 164.276C299.414 163.999 299.118 163.41 299.115 162.58L299.046 138.35C299.041 136.668 300.222 134.623 301.686 133.777C302.423 133.352 303.09 133.313 303.572 133.592L302.103 132.738Z" fill="#E6E6E6"/>
<path d="M301.687 133.778C303.151 132.933 304.341 133.61 304.345 135.293L304.413 159.522C304.418 161.19 303.237 163.25 301.773 164.095C300.309 164.941 299.12 164.248 299.116 162.581L299.047 138.351C299.042 136.669 300.223 134.623 301.687 133.778Z" fill="#BFBFBF"/>
<path d="M302.118 136.501C303.32 135.808 304.294 136.364 304.299 137.744L304.355 157.62C304.358 158.988 303.39 160.678 302.188 161.371C300.987 162.065 300.012 161.497 300.008 160.129L299.952 140.253C299.949 138.874 300.918 137.195 302.118 136.501Z" fill="#CCCCCC"/>
<path d="M199.5 69.9675L179.532 58.4389C178.882 58.0639 178.296 58.0293 177.871 58.2765L174.118 60.4577C174.542 60.2113 175.13 60.2459 175.779 60.62L195.747 72.1486C197.039 72.8943 198.085 74.7063 198.081 76.1903L198.016 99.1354C198.014 99.8712 197.754 100.389 197.335 100.632L201.088 98.4507C201.507 98.2067 201.767 97.6901 201.769 96.9534L201.834 74.0083C201.837 72.5251 200.792 70.7132 199.5 69.9675Z" fill="#8482FF"/>
<path d="M195.746 72.1485C197.038 72.8942 198.084 74.7062 198.08 76.1902L198.015 99.1354C198.011 100.62 196.958 101.214 195.666 100.469L175.698 88.94C174.406 88.1943 173.365 86.3914 173.369 84.9065L173.434 61.9614C173.438 60.4766 174.486 59.8742 175.778 60.6199L195.746 72.1485Z" fill="#4D4BB7"/>
<path d="M184.296 81.7374L182.421 86.7729L174.605 82.2606L179.457 75.4165C180.138 74.4557 181.841 75.4396 182.523 77.1864L184.296 81.7374Z" fill="white"/>
<path d="M187.375 89.6338L182.421 86.7729L184.296 81.7374L187.375 89.6338Z" fill="#E6E6E6"/>
<path d="M195.191 94.1461L187.375 89.6338L184.296 81.7374L186.668 75.3786C187.379 73.4744 190.231 75.1215 190.943 77.8465L195.191 94.1461Z" fill="white"/>
<path d="M184.332 72.788C184.332 73.8938 183.551 74.3388 182.587 73.7826C181.623 73.2264 180.842 71.8783 180.842 70.7725C180.842 69.6667 181.623 69.2217 182.587 69.7779C183.551 70.335 184.332 71.6822 184.332 72.788Z" fill="#E6E6E6"/>
<path d="M272.959 157.278L223.886 128.945C223.212 128.556 222.602 128.519 222.162 128.776L218.409 130.957C218.849 130.7 219.458 130.737 220.133 131.126L269.206 159.459C270.546 160.233 271.626 162.103 271.622 163.649L271.598 172.021C271.595 172.788 271.325 173.328 270.889 173.581L274.643 171.4C275.078 171.146 275.349 170.607 275.351 169.84L275.375 161.469C275.379 159.922 274.3 158.052 272.959 157.278Z" fill="#8482FF"/>
<path d="M269.206 159.459C270.547 160.233 271.626 162.103 271.622 163.649L271.598 172.021C271.594 173.562 270.507 174.186 269.166 173.412L220.093 145.08C218.752 144.306 217.673 142.431 217.677 140.89L217.701 132.518C217.705 130.972 218.792 130.353 220.133 131.127L269.206 159.459Z" fill="#4D4BB7"/>
<path d="M267.577 164.585L222.571 138.473C222.055 138.176 221.637 138.491 221.637 139.179C221.637 139.866 222.055 140.664 222.571 140.962L267.577 167.073C268.092 167.371 268.51 167.055 268.51 166.368C268.51 165.681 268.092 164.882 267.577 164.585Z" fill="white"/>
<path d="M272.959 186.563L223.886 158.23C223.213 157.841 222.603 157.806 222.163 158.061L218.409 160.242C218.849 159.986 219.459 160.022 220.132 160.411L269.206 188.744C270.546 189.518 271.626 191.394 271.622 192.934L271.598 201.311C271.595 202.077 271.327 202.614 270.892 202.867L274.645 200.686C275.08 200.433 275.349 199.896 275.351 199.13L275.375 190.753C275.379 189.212 274.3 187.336 272.959 186.563Z" fill="#8482FF"/>
<path d="M269.206 188.744C270.547 189.518 271.626 191.394 271.622 192.934L271.598 201.311C271.594 202.852 270.507 203.471 269.166 202.697L220.093 174.365C218.752 173.591 217.673 171.721 217.677 170.181L217.701 161.803C217.705 160.263 218.792 159.638 220.133 160.412L269.206 188.744Z" fill="#4D4BB7"/>
<path d="M267.577 193.399L222.571 167.288C222.055 166.99 221.637 167.306 221.637 167.993C221.637 168.68 222.055 169.479 222.571 169.776L267.577 195.888C268.092 196.185 268.51 195.87 268.51 195.182C268.51 194.495 268.092 193.697 267.577 193.399Z" fill="white"/>
<path d="M199.5 215.403L179.532 203.874C178.882 203.499 178.296 203.465 177.871 203.712L174.118 205.893C174.542 205.646 175.13 205.68 175.779 206.055L195.747 217.584C197.039 218.33 198.085 220.141 198.081 221.625L198.016 244.571C198.014 245.306 197.754 245.824 197.335 246.067L201.088 243.886C201.507 243.642 201.767 243.125 201.769 242.389L201.834 219.444C201.837 217.959 200.792 216.148 199.5 215.403Z" fill="#8482FF"/>
<path d="M195.746 217.584C197.038 218.33 198.084 220.142 198.08 221.626L198.015 244.571C198.011 246.056 196.958 246.65 195.666 245.904L175.698 234.375C174.406 233.63 173.365 231.827 173.369 230.342L173.434 207.397C173.438 205.912 174.486 205.31 175.778 206.055L195.746 217.584Z" fill="#4D4BB7"/>
<path d="M195.092 225.379V225.412L185.579 226.21L175.924 214.312C175.924 213.939 176.188 213.788 176.513 213.976L194.503 224.363C194.827 224.551 195.092 225.005 195.092 225.379Z" fill="white"/>
<path d="M185.579 226.965L195.092 226.163V237.745C195.092 238.119 194.828 238.269 194.503 238.082L176.513 227.695C176.188 227.507 175.924 227.052 175.924 226.678V215.06L185.437 226.788L185.579 226.965Z" fill="white"/>
<path d="M272.136 219.849L183.292 168.554C182.389 168.033 181.57 167.984 180.979 168.328L177.225 170.509C177.816 170.165 178.635 170.214 179.538 170.735L268.383 222.03C270.18 223.068 271.628 225.575 271.622 227.64L271.603 234.327C271.6 235.354 271.238 236.077 270.654 236.417L274.407 234.236C274.991 233.897 275.353 233.173 275.356 232.146L275.375 225.46C275.381 223.394 273.934 220.887 272.136 219.849Z" fill="#8482FF"/>
<path d="M268.383 222.03C270.18 223.068 271.628 225.575 271.622 227.64L271.603 234.327C271.597 236.392 270.14 237.228 268.342 236.19L179.498 184.895C177.706 183.86 176.253 181.344 176.259 179.279L176.278 172.593C176.284 170.528 177.745 169.7 179.537 170.734L268.383 222.03Z" fill="#4D4BB7"/>
<path d="M266.041 227.072L180.522 177.399C180.006 177.101 179.589 177.417 179.589 178.105C179.589 178.792 180.006 179.591 180.522 179.888L266.041 229.561C266.556 229.858 266.975 229.542 266.975 228.854C266.975 228.168 266.557 227.37 266.041 227.072Z" fill="white"/>
<path d="M235.955 236.411L215.987 224.882C215.338 224.507 214.751 224.473 214.326 224.72L210.573 226.901C210.997 226.654 211.584 226.689 212.233 227.063L232.202 238.592C233.494 239.337 234.539 241.149 234.535 242.633L234.47 265.579C234.468 266.314 234.208 266.832 233.79 267.076L237.543 264.895C237.961 264.652 238.222 264.134 238.223 263.397L238.289 240.452C238.293 238.968 237.247 237.157 235.955 236.411Z" fill="#8482FF"/>
<path d="M232.202 238.592C233.494 239.338 234.539 241.149 234.535 242.634L234.47 265.579C234.466 267.064 233.413 267.658 232.121 266.913L212.153 255.384C210.861 254.638 209.82 252.835 209.824 251.35L209.889 228.405C209.893 226.921 210.942 226.318 212.233 227.064L232.202 238.592Z" fill="#4D4BB7"/>
<path d="M230.41 259.216L213.918 249.694C212.922 249.12 212.113 247.723 212.113 246.581V237.492C212.113 236.35 212.923 235.889 213.918 236.463L230.41 245.985C231.406 246.56 232.215 247.956 232.215 249.098V258.186C232.215 259.33 231.406 259.792 230.41 259.216ZM213.918 237.328C213.338 236.992 212.866 237.262 212.866 237.928V247.016C212.866 247.683 213.338 248.497 213.918 248.832L230.41 258.355C230.99 258.689 231.463 258.42 231.463 257.754V248.665C231.463 247.999 230.991 247.184 230.41 246.85L213.918 237.328Z" fill="white"/>
<path d="M222.164 252.975C219.746 251.578 217.778 248.184 217.778 245.409C217.778 242.633 219.746 241.511 222.164 242.908C224.583 244.305 226.551 247.698 226.551 250.474C226.551 253.249 224.583 254.371 222.164 252.975ZM222.164 243.771C220.161 242.615 218.53 243.544 218.53 245.843C218.53 248.143 220.161 250.955 222.164 252.112C224.168 253.269 225.798 252.339 225.798 250.04C225.798 247.741 224.168 244.928 222.164 243.771Z" fill="white"/>
<path d="M227.371 244.937L216.957 238.925V236.746C216.957 235.997 217.488 235.694 218.141 236.07L226.186 240.715C226.839 241.093 227.371 242.009 227.371 242.758V244.937H227.371ZM217.709 238.495L226.619 243.64V242.324C226.619 242.05 226.425 241.715 226.186 241.578L218.141 236.933C217.903 236.795 217.708 236.906 217.708 237.179L217.709 238.495Z" fill="white"/>
<path d="M273.047 257.787L253.078 246.258C252.428 245.882 251.839 245.849 251.412 246.096L247.659 248.277C248.085 248.03 248.674 248.064 249.324 248.439L269.292 259.968C270.585 260.714 271.625 262.522 271.621 264.007L271.556 286.952C271.554 287.69 271.294 288.208 270.875 288.452L274.629 286.271C275.048 286.027 275.308 285.509 275.309 284.771L275.374 261.826C275.379 260.341 274.339 258.532 273.047 257.787Z" fill="#8482FF"/>
<path d="M269.293 259.968C270.585 260.714 271.626 262.522 271.622 264.007L271.557 286.952C271.553 288.437 270.504 289.034 269.212 288.288L249.244 276.759C247.952 276.014 246.907 274.208 246.911 272.723L246.976 249.778C246.98 248.293 248.033 247.694 249.324 248.44L269.293 259.968Z" fill="#4D4BB7"/>
<path d="M259.354 259.468C254.79 256.833 251.09 258.209 251.09 262.542C251.09 265.348 252.647 268.701 254.98 271.435C254.872 272.167 254.397 273.702 252.309 272.523C252.309 272.523 255.191 275.701 257.923 274.207C258.388 274.553 258.865 274.876 259.354 275.158C263.918 277.793 267.618 276.417 267.618 272.084C267.618 267.751 263.918 262.103 259.354 259.468Z" fill="white"/>
<path d="M271.614 111.519L214.939 78.7983C213.891 78.1935 212.941 78.1366 212.255 78.5354L208.502 80.7165C209.188 80.3177 210.138 80.3746 211.185 80.9794L267.86 113.701C269.944 114.904 271.629 117.822 271.622 120.222L271.566 139.863C271.562 141.053 271.142 141.89 270.465 142.283L274.218 140.102C274.896 139.708 275.316 138.872 275.319 137.682L275.375 118.041C275.382 115.641 273.697 112.722 271.614 111.519Z" fill="#8482FF"/>
<path d="M267.86 113.7C269.944 114.903 271.629 117.822 271.622 120.222L271.566 139.862C271.559 142.257 269.863 143.224 267.78 142.021L211.105 109.299C209.021 108.096 207.337 105.178 207.343 102.783L207.399 83.1424C207.406 80.7421 209.102 79.7764 211.186 80.9794L267.86 113.7Z" fill="#4D4BB7"/>
<path d="M266.436 118.415L212.998 87.4379C212.483 87.1404 212.065 87.456 212.065 88.1432C212.065 88.8305 212.482 89.6289 212.998 89.9264L266.436 120.904C266.951 121.201 267.369 120.886 267.369 120.198C267.369 119.511 266.951 118.713 266.436 118.415Z" fill="white"/>
<path d="M266.436 125.833L212.998 94.8555C212.483 94.558 212.065 94.8736 212.065 95.5608C212.065 96.2481 212.482 97.0465 212.998 97.344L266.436 128.321C266.951 128.619 267.369 128.303 267.369 127.616C267.369 126.929 266.951 126.13 266.436 125.833Z" fill="white"/>
<path d="M266.436 133.251L212.998 102.273C212.483 101.976 212.065 102.291 212.065 102.979C212.065 103.666 212.482 104.464 212.998 104.762L266.436 135.739C266.951 136.037 267.369 135.721 267.369 135.034C267.369 134.347 266.951 133.548 266.436 133.251Z" fill="white"/>
<path d="M179.955 119.124C179.901 118.947 179.812 118.78 179.787 118.596C179.762 118.405 179.807 118.211 179.812 118.018C179.822 117.59 179.615 117.162 179.272 116.904C179.136 116.802 178.98 116.724 178.867 116.598C178.76 116.478 178.699 116.325 178.614 116.189C178.193 115.521 177.271 115.399 176.485 115.468C174.855 115.61 173.308 116.264 171.884 117.071C169.945 118.169 168.149 119.595 166.921 121.454C166.441 122.182 166.053 122.968 165.732 123.778C165.45 124.49 165.22 125.221 165.016 125.959C164.881 126.449 164.703 126.929 164.598 127.428C164.55 127.657 164.515 127.898 164.501 128.13C164.488 128.352 164.52 128.567 164.386 128.762C164.225 128.998 149.045 147.976 147.968 149.315C147.019 150.496 146.251 151.955 145.144 152.971C142.836 155.088 139.841 156.612 137.047 157.969C134.775 159.072 130.749 160.071 131.752 163.548C132.048 164.574 132.896 165.326 133.629 166.103C134.872 167.42 135.875 168.961 136.577 170.63C136.619 170.729 136.667 170.837 136.762 170.888C136.897 170.959 137.06 170.887 137.195 170.815C141.155 168.703 151.988 161.057 153.823 159.943C153.824 159.886 153.814 159.829 153.814 159.771C154.368 159.496 154.797 158.985 155.173 158.477C156.509 156.682 157.762 154.826 158.948 152.929C160.134 151.03 161.253 149.09 162.322 147.124C163.393 145.154 164.415 143.157 165.408 141.146C166.402 139.133 168.704 134.262 168.895 133.856C169.037 133.552 169.12 133.094 169.453 132.934C169.667 132.832 169.912 132.835 170.13 132.72C170.375 132.591 170.591 132.409 170.794 132.221C173.003 130.176 174.243 127.319 175.982 124.86C176.292 124.421 176.623 123.99 177.038 123.651C177.826 123.006 178.915 122.685 179.448 121.818C179.664 121.467 179.765 121.06 179.862 120.661C179.986 120.155 180.108 119.62 179.955 119.124Z" fill="#FFB78C"/>
<path d="M121.554 340.908C121.669 342.28 122.092 343.551 123.138 344.275C123.742 344.693 124.497 344.833 125.231 344.862C127.241 344.94 129.272 344.234 130.799 342.926C132.523 341.448 133.586 339.283 135.424 337.95C136.403 337.239 137.548 336.807 138.651 336.311C141.381 335.087 143.922 333.441 146.155 331.45C146.637 331.019 147.213 330.487 147.448 329.867C147.827 328.867 147.429 327.739 146.548 327.196C146.006 326.861 145.375 326.702 144.749 326.59C142.516 326.191 140.223 326.334 137.964 326.539C135.09 326.8 132.193 327.168 129.492 328.186C128.319 328.628 127.189 329.196 126.156 329.908C125.766 330.177 125.2 330.859 124.736 330.941C124.569 330.971 123.465 330.583 123.486 330.517C122.852 332.523 122.217 334.538 121.866 336.613C121.669 337.781 121.427 339.406 121.554 340.908Z" fill="#4D4BB7"/>
<path d="M142.39 234.36C142.279 233.577 141.875 232.872 141.508 232.173C139.02 227.438 137.891 222.164 136.088 217.162C135.218 214.748 134.194 212.372 132.777 210.225C131.94 208.955 129.62 205.56 127.631 206.269C127.347 206.371 127.119 206.584 126.902 206.793C123.257 210.314 120.236 214.474 117.989 219.014C115.694 223.651 114.65 228.081 114.636 233.253C114.625 237.096 115.205 240.944 116.41 244.596C116.835 245.886 117.333 247.157 117.599 248.488C117.88 249.894 117.896 251.338 117.911 252.772C117.97 258.357 118.028 263.942 118.087 269.527C118.114 272.094 118.119 274.67 118.299 277.215C118.48 279.761 118.523 282.52 117.8 284.988C117.039 287.585 116.543 290.263 116.216 292.948C115.357 300.01 116.847 307.124 118.328 314.082C119.663 320.356 120.999 326.629 122.333 332.902C122.412 333.268 122.5 333.654 122.761 333.922C122.968 334.134 123.258 334.243 123.543 334.325C125.263 334.816 127.138 334.514 128.774 333.792C130.41 333.069 131.838 331.95 133.181 330.768C133.535 330.457 133.892 330.13 134.106 329.71C134.638 328.662 134.142 327.412 133.697 326.325C129.708 316.594 130.016 305.543 132.437 295.308C133.265 291.808 134.332 288.354 134.812 284.79C134.848 284.523 134.866 284.252 134.862 283.983C134.866 283.965 134.874 283.948 134.878 283.93C138.703 268.163 140.637 252.004 142.354 235.87C142.408 235.368 142.46 234.86 142.39 234.36Z" fill="#333333"/>
<path d="M171.333 324.855C169.049 324.753 166.75 324.737 164.48 325.05C162.761 325.286 160.844 325.86 159.527 327.036C158.64 327.83 157.957 328.825 157.329 329.836C155.616 332.593 152.458 339.033 157.019 340.895C157.805 341.216 158.688 341.223 159.526 341.095C162.419 340.653 164.904 338.71 167.785 338.201C168.855 338.011 169.948 338.027 171.035 337.996C174.924 337.89 178.904 337.156 182.179 335.058C183.755 334.049 184.776 332.579 185.218 330.747C185.819 328.256 184.298 326.712 181.999 326.186C178.501 325.387 174.916 325.015 171.333 324.855Z" fill="#8482FF"/>
<path d="M167.566 323.112C165.245 315.422 164.08 307.386 164.121 299.353C164.154 292.928 163.28 286.171 164.087 279.812C164.901 273.408 164.401 266.419 163.256 260.072C161.403 249.798 156.872 240.058 155.968 229.658C155.627 225.738 155.807 221.768 155.126 217.893C150.479 220.295 144.966 220.977 139.873 219.781C137.218 219.158 134.718 218.053 132.172 217.104C131.11 216.662 129.97 216.567 128.895 216.176C127.939 215.827 127.305 215.247 126.508 214.582C122.482 219.439 120.088 225.624 119.796 231.925C119.574 236.705 120.561 241.529 122.604 245.854C124.745 250.386 128.203 253.579 131.923 256.839C135.511 259.985 139.287 263.052 141.876 267.062C144.115 270.527 145.31 274.944 146.411 278.883C147.656 283.338 148.625 287.9 148.834 292.532C149.027 296.806 148.447 300.757 149.194 305.044C149.532 306.989 150.002 308.91 150.6 310.79C152.784 317.652 156.707 324.233 156.459 331.429C156.448 331.734 156.439 332.068 156.625 332.309C156.768 332.493 156.997 332.585 157.219 332.656C160.173 333.606 163.421 332.317 165.888 330.434C166.736 329.786 167.556 329.031 167.957 328.043C168.586 326.482 168.052 324.723 167.566 323.112Z" fill="#424242"/>
<path d="M114.702 162.456C113.829 167.173 114.311 172.362 115.218 176.801C116.538 183.257 118.385 189.604 120.734 195.76C121.692 198.269 122.745 200.795 122.96 203.472C123.337 208.174 121.105 212.65 118.877 216.807C118.669 217.194 118.455 217.611 118.499 218.048C118.535 218.404 118.738 218.719 118.944 219.013C121.648 222.866 125.746 225.61 130.177 227.197C134.609 228.784 139.371 229.274 144.077 229.214C148.074 229.164 152.162 228.7 155.743 226.924C155.944 221.054 156.146 215.183 156.093 209.31C156.043 203.788 154.714 197.986 156.029 192.534C156.505 190.562 157.322 188.688 157.837 186.726C158.385 184.635 158.585 182.453 158.426 180.298C158.297 178.542 157.789 176.595 156.266 175.711C155.791 175.436 155.253 175.289 154.768 175.033C152.462 173.821 151.903 170.576 149.679 169.219C148.874 168.728 147.928 168.537 147.02 168.283C137.293 165.561 129.947 153.614 119.121 155.334C118.542 155.425 117.944 155.532 117.46 155.861C116.936 156.216 116.607 156.79 116.33 157.358C115.559 158.946 115.033 160.668 114.702 162.456Z" fill="#D9D9D9"/>
<path d="M119.464 158.707C119.327 158.975 119.202 159.249 119.108 159.535C118.422 161.626 120.369 163.012 121.979 163.903C124.572 165.341 127.562 165.98 130.526 165.992C132.317 166 134.104 165.784 135.854 165.412C136.529 165.269 136.993 165.253 137.333 164.645C137.729 163.935 137.777 163.051 137.82 162.259C137.917 160.468 137.966 158.674 138.014 156.882C138.089 154.104 138.165 151.328 138.24 148.55C138.271 147.377 136.637 147.713 135.766 147.6C134.502 147.436 133.241 147.255 131.989 147.018C129.508 146.55 127.049 145.866 124.791 144.718C124.193 144.414 123.242 143.684 122.564 143.649C121.716 143.604 121.727 144.727 121.634 145.41C121.376 147.3 121.425 149.213 121.36 151.116C121.285 153.345 121.044 155.628 120.043 157.62C119.861 157.986 119.651 158.342 119.464 158.707Z" fill="#FFB78C"/>
<path d="M142.99 131.117C143.243 131.521 143.497 131.945 143.548 132.419C143.597 132.868 143.458 133.317 143.456 133.769C143.449 135.344 144.985 136.402 146.234 137.362C146.728 137.741 147.249 138.261 147.171 138.879C147.139 139.127 147.012 139.351 146.9 139.574C146.02 141.321 145.968 143.308 146.079 145.221C146.15 146.436 147.085 149.69 145.855 150.47C144.396 151.393 142.813 152.121 141.162 152.627C140.192 152.924 139.022 153.154 138.09 152.619C137.288 152.159 136.747 151.225 136.022 150.622C135.159 149.905 134 150.939 133.069 151.246C131.856 151.646 130.593 151.895 129.319 151.997C126.845 152.194 124.324 151.838 122.006 150.949C120.522 150.38 119.103 149.598 117.933 148.521C116.627 147.319 115.672 145.789 114.792 144.248C113.615 142.186 112.521 140.004 112.268 137.643C112 135.131 112.735 132.637 113.93 130.445C115.112 128.276 116.592 126.677 118.533 125.197C122.117 122.464 126.888 121.905 131.395 121.9C133.036 121.898 134.399 122.034 135.895 122.67C137.467 123.338 138.747 124.417 139.427 125.959C140.244 127.81 141.916 129.398 142.99 131.117Z" fill="#FFE5CC"/>
<path d="M133.191 142.771C133.727 141.865 134.588 141.192 135.705 140.585C138.058 139.307 138.483 136.392 138.784 134.022C139.171 130.973 139.099 127.553 138.03 124.651C137.049 121.991 133.753 120.918 131.214 120.605C128.081 120.219 124.843 120.568 121.915 121.748C117.563 123.502 113.93 127.604 111.948 131.769C109.534 136.842 109.492 142.102 109.861 147.566C109.986 149.413 110.05 150.706 111.34 152.158C112.129 153.046 113.129 153.721 114.164 154.305C119.803 157.482 126.833 158.072 132.923 155.879C133.834 155.551 134.739 155.155 135.473 154.524C137.286 152.964 137.006 150.787 135.518 149.094C134.755 148.228 133.455 148.108 132.873 147.015C132.6 146.502 132.555 145.9 132.557 145.319C132.561 144.285 132.782 143.461 133.191 142.771Z" fill="#733118"/>
<path d="M207.353 121.162L178.69 104.613C177.786 104.091 176.966 104.042 176.374 104.387L172.621 106.568C173.212 106.224 174.032 106.272 174.938 106.794L203.601 123.343C205.398 124.38 206.851 126.896 206.845 128.956L206.758 159.882C206.755 160.905 206.393 161.625 205.809 161.964L209.562 159.783C210.146 159.444 210.508 158.724 210.511 157.701L210.599 126.775C210.603 124.715 209.15 122.199 207.353 121.162Z" fill="#8482FF"/>
<path d="M203.6 123.343C205.397 124.38 206.85 126.896 206.844 128.956L206.757 159.882C206.751 161.942 205.289 162.775 203.492 161.737L174.828 145.189C173.031 144.151 171.578 141.636 171.585 139.576L171.672 108.649C171.678 106.59 173.14 105.757 174.937 106.795L203.6 123.343Z" fill="#4D4BB7"/>
<path d="M188.239 123.891C183.194 120.978 179.109 123.307 179.109 129.096C179.109 134.88 183.194 141.931 188.239 144.844C193.279 147.754 197.369 145.422 197.369 139.638C197.369 133.849 193.279 126.8 188.239 123.891ZM186.01 137.909V128.49L193.119 137.306L186.01 137.909Z" fill="white"/>
<path d="M159.274 189.413C168.329 190.192 177.44 189.522 186.494 188.743C186.538 188.74 186.582 188.729 186.626 188.725C188.91 188.504 189.435 186.584 190.332 184.792C191.134 183.188 191.851 181.545 192.553 179.895C196.325 171.032 199.638 161.977 202.525 152.788C203.05 151.974 203.913 151.402 204.681 150.786C207.812 148.276 210.367 145.052 212.094 141.43C212.646 140.271 213.109 138.878 212.502 137.747C212.313 137.395 212.029 137.094 211.888 136.72C211.722 136.275 211.777 135.774 211.636 135.32C211.318 134.294 210.126 133.793 209.622 132.845C209.421 132.468 209.291 131.985 208.892 131.833C208.562 131.708 208.181 131.888 207.955 132.158C207.728 132.428 207.617 132.774 207.489 133.102C206.756 134.982 205.287 136.563 203.466 137.432C203.115 137.601 202.678 137.736 202.357 137.516C202.917 136.621 203.33 135.635 203.577 134.609C203.719 134.015 203.802 133.367 203.552 132.809C203.302 132.251 202.61 131.855 202.06 132.12C201.52 132.38 201.39 133.069 201.258 133.653C201.037 134.628 200.631 135.56 200.067 136.385C199.481 137.241 198.732 137.977 198.159 138.842C197.675 139.573 197.328 140.385 197.082 141.225C196.637 142.742 196.482 144.366 196.441 145.942C196.42 146.782 196.315 147.654 196.144 148.515C196.109 148.604 196.073 148.694 196.04 148.782C195.094 151.383 182.408 175.326 180.569 178.103C180.03 178.098 179.498 178.087 178.994 178.028C173.003 177.331 166.958 176.357 161.452 173.894C158.665 172.648 156.03 171.026 153.103 170.154C150.177 169.281 146.779 169.271 144.319 171.079C142.356 172.521 141.354 174.853 140.877 177.176C139.038 186.135 150.417 188.386 156.879 189.166C157.677 189.263 158.475 189.344 159.274 189.413Z" fill="#FFE5CC"/>
<path d="M168.939 182.205C168.969 185.313 168.204 188.266 166.735 191.002C166.208 191.982 165.678 192.342 164.512 192.321C163.681 192.306 162.855 192.205 162.032 192.092C157.394 191.454 152.808 190.436 148.336 189.053C146.202 188.393 144.377 187.916 142.487 186.652C141.454 185.961 140.544 185.076 139.896 184.012C138.839 182.271 138.463 180.192 138.846 178.192C139.538 174.583 141.999 171.253 145.438 169.844C145.889 169.659 146.356 169.506 146.835 169.414C147.828 169.222 148.852 169.3 149.853 169.447C152.694 169.864 155.42 170.836 158.122 171.806C160.987 172.834 163.851 173.867 166.712 174.906C167.962 175.36 168.033 176.446 168.348 177.598C168.763 179.107 168.924 180.641 168.939 182.205Z" fill="#F2F2F2"/>
<path d="M169.136 119.406C168.351 119.904 167.499 120.343 166.9 121.054C166.022 122.095 165.832 123.569 166.001 124.92C166.076 125.511 166.219 126.111 166.562 126.598C166.904 127.085 167.481 127.44 168.075 127.384C168.627 127.332 169.092 126.944 169.437 126.509C169.803 126.049 170.078 125.516 170.24 124.95C170.566 123.814 170.461 122.52 171.134 121.549C171.441 121.105 171.885 120.776 172.294 120.423C172.811 119.979 173.288 119.483 173.667 118.917C173.94 118.509 174.164 118.06 174.25 117.576C174.335 117.093 174.274 116.573 174.012 116.157C173.289 115.006 172.351 116.652 171.87 117.158C171.054 118.016 170.134 118.772 169.136 119.406Z" fill="#FFE5CC"/>
<path d="M289.958 222.216C295.28 223.466 300.602 224.716 305.924 225.966C309.115 226.715 312.325 227.47 315.337 228.762C318.348 230.054 321.183 231.925 323.146 234.55C323.257 234.699 323.368 234.904 323.263 235.058C323.197 235.156 323.069 235.188 322.953 235.212C318.836 236.05 314.649 236.893 310.465 236.516C307.243 236.225 304.125 235.217 301.132 233.989C297.796 232.622 294.574 230.975 291.511 229.073C289.077 227.56 286.659 225.795 285.298 223.272C285.134 222.969 284.984 222.618 285.088 222.291C285.175 222.017 285.419 221.827 285.659 221.67C286.345 221.218 286.951 220.77 287.68 221.28C288.38 221.773 289.129 222.021 289.958 222.216Z" fill="#FFB78C"/>
<path d="M356.509 256.458C356.509 263.779 351.348 272.706 344.952 276.375C341.722 278.241 338.8 278.403 336.706 277.154C336.658 277.138 336.625 277.121 336.576 277.089C332.762 274.816 328.362 273.551 324.028 272.82C317.973 271.814 311.789 271.829 305.653 271.375C303.024 271.181 300.361 270.888 297.894 269.931C295.086 268.86 292.668 266.992 290.395 265.012C288.431 263.308 286.532 261.49 284.648 259.689C279.032 254.3 273.416 248.911 267.783 243.537C267.15 242.904 266.419 242.255 265.932 241.509C265.462 240.794 265.738 239.739 266.11 239.042C266.516 238.295 267.149 237.694 267.798 237.159C267.83 237.143 267.863 237.11 267.896 237.078C267.976 236.981 268.041 236.867 268.009 236.753C267.976 236.705 267.928 236.656 267.879 236.623C267.847 236.591 267.814 236.575 267.782 236.542C267.782 236.542 267.782 236.525 267.765 236.525C266.451 235.454 265.153 234.398 263.837 233.344C263.026 232.694 262.165 231.964 261.938 230.942C261.727 230.016 262.133 229.01 262.831 228.361C263.172 228.053 263.578 227.809 264.016 227.663C264.194 227.598 264.357 227.582 264.52 227.582C264.828 227.582 265.12 227.631 265.429 227.55C264.779 227.08 264.13 226.608 263.481 226.154C263.481 226.122 263.464 226.122 263.448 226.138C262.848 225.683 262.247 225.261 261.647 224.823C260.966 224.319 260.365 223.621 260.3 222.745C260.203 221.462 261.095 220.196 262.216 219.66C263.742 218.914 265.803 219.563 267.231 220.455C267.394 220.553 267.54 220.666 267.686 220.764C267.54 220.65 267.41 220.26 267.297 220.098C267.134 219.838 266.94 219.594 266.761 219.351C266.664 219.221 266.566 219.108 266.468 218.978C266.176 218.62 265.901 218.247 265.657 217.858C265.056 216.852 264.586 215.618 265.284 214.531C265.819 213.703 266.858 213.329 267.832 213.313C268.968 213.281 270.056 213.606 271.127 213.962C274.958 215.212 278.707 216.673 282.36 218.329C284.048 219.092 285.704 219.87 287.246 220.877C288.852 221.932 290.248 223.199 291.726 224.4C296.498 228.264 302.488 230.584 308.607 230.925C311.561 231.087 314.548 230.811 317.453 231.331C320.424 231.866 323.184 233.197 325.894 234.544C330.342 236.785 343.669 244.04 352.305 248.65C352.726 248.878 353.148 249.089 353.538 249.3C355.39 250.581 356.509 253.049 356.509 256.458Z" fill="#FFE5CC"/>
<path d="M356.51 256.458C356.51 263.779 351.348 272.706 344.952 276.375C341.722 278.241 338.8 278.403 336.706 277.154C336.658 277.138 336.625 277.121 336.576 277.089C334.612 275.856 333.411 273.339 333.411 269.801C333.411 262.48 338.573 253.552 344.952 249.867C347.744 248.261 350.309 247.919 352.305 248.65C352.744 248.813 353.149 249.024 353.539 249.3C355.39 250.581 356.51 253.049 356.51 256.458Z" fill="#FFB78C"/>
<path d="M265.713 214.573C265.32 215.07 265.167 215.72 265.141 216.353C265.131 216.59 265.139 216.832 265.209 217.058C265.288 217.311 265.441 217.534 265.603 217.744C266.419 218.799 267.489 219.629 268.583 220.392C269.355 219.324 269.472 217.932 269.563 216.617C269.568 216.527 269.575 216.434 269.548 216.348C269.522 216.268 269.471 216.199 269.42 216.132C269.016 215.6 268.612 215.069 268.209 214.537C267.875 214.097 267.653 213.822 267.092 213.879C266.541 213.935 266.066 214.126 265.713 214.573Z" fill="#FFB78C"/>
<path d="M260.426 222.203C260.312 222.673 260.349 223.167 260.419 223.646C260.458 223.918 260.514 224.2 260.688 224.413C260.808 224.56 260.975 224.659 261.14 224.753C262.339 225.433 263.633 225.948 264.973 226.278C265.317 225.274 265.354 224.195 265.387 223.134C265.392 222.99 265.395 222.842 265.34 222.708C265.302 222.612 265.235 222.53 265.167 222.452C264.477 221.658 263.539 221.084 262.521 220.823C261.995 220.688 261.705 220.59 261.251 220.944C260.849 221.258 260.548 221.706 260.426 222.203Z" fill="#FFB78C"/>
<path d="M262.239 230.617C262.118 231.018 262.007 231.455 262.155 231.846C262.249 232.096 262.438 232.296 262.627 232.485C263.731 233.593 264.99 234.57 266.425 235.191C266.514 234.513 266.6 233.829 266.555 233.147C266.51 232.464 266.325 231.775 265.92 231.224C265.418 230.542 264.641 230.151 263.864 229.866C263.607 229.772 263.098 229.491 262.825 229.588C262.489 229.707 262.328 230.322 262.239 230.617Z" fill="#FFB78C"/>
<path d="M266.64 241.662C267.517 242.259 268.395 242.858 269.273 243.456C269.317 243.485 269.37 243.516 269.418 243.495C269.472 243.473 269.483 243.403 269.488 243.345C269.531 242.661 269.572 241.947 269.306 241.315C269.085 240.785 268.672 240.37 268.254 239.989C267.86 239.631 267.417 239.159 266.889 239.012C265.998 238.763 265.26 239.613 265.532 240.477C265.698 241.007 266.203 241.364 266.64 241.662Z" fill="#FFB78C"/>
<path d="M293.247 262.431C290.293 261.181 287.971 258.827 285.731 256.523C282.208 252.935 278.702 249.332 275.196 245.728C273.881 244.381 272.55 243.034 271.414 241.524C270.213 239.95 269.239 238.391 267.891 237.077C267.973 236.98 268.037 236.866 268.005 236.753C267.973 236.704 267.924 236.655 267.876 236.622C267.843 236.59 267.811 236.574 267.779 236.541C269.467 237.531 270.83 239.089 272.096 240.534C275.278 244.219 278.346 248.001 281.82 251.393C285.602 255.11 289.854 258.373 293.247 262.431Z" fill="#FFB78C"/>
<path d="M291.153 252.529C287.809 250.077 285.017 246.993 282.241 243.925C279.888 241.312 277.55 238.714 275.196 236.118C274.19 234.998 273.183 233.878 272.047 232.888C270.992 231.963 269.839 231.167 268.687 230.372C267.404 229.496 266.138 228.506 264.791 227.743C264.693 227.694 264.596 227.646 264.515 227.581C264.823 227.581 265.115 227.629 265.424 227.548C264.774 227.078 264.125 226.607 263.476 226.153C266.576 227.597 269.498 229.935 271.949 232.272C273.231 233.489 274.432 234.788 275.634 236.103C280.748 241.621 285.926 247.108 291.153 252.529Z" fill="#FFB78C"/>
<path d="M292.532 240.988C290.666 240.03 289.157 238.536 287.63 237.108C282.842 232.563 277.713 228.359 272.324 224.528C270.652 223.344 268.866 222.174 267.422 220.698C267.357 220.616 267.276 220.535 267.227 220.455C267.39 220.552 267.536 220.666 267.682 220.763C267.536 220.649 267.406 220.259 267.292 220.097C267.13 219.837 266.936 219.594 266.757 219.35C266.66 219.22 266.562 219.107 266.464 218.977C266.951 219.302 267.438 219.626 267.909 219.968C272.405 223.117 276.512 226.737 280.603 230.372C282.096 231.703 283.59 233.035 285.066 234.349C287.565 236.573 290.049 238.78 292.532 240.988Z" fill="#FFB78C"/>
<path d="M300.387 242.06C300.845 242.108 301.307 242.109 301.765 242.065C301.996 242.043 302.237 242.004 302.421 241.863C302.578 241.744 302.675 241.562 302.742 241.377C302.964 240.763 302.89 240.069 302.637 239.467C301.974 237.889 299.535 235.634 298.06 237.611C296.722 239.407 298.43 241.855 300.387 242.06Z" fill="#FFB78C"/>
<path d="M296.961 255.17C297.237 255.194 297.522 255.198 297.784 255.107C298.375 254.904 298.725 254.23 298.664 253.609C298.471 251.635 295 250.622 293.628 251.944C291.85 253.657 295.712 255.058 296.961 255.17Z" fill="#FFB78C"/>
<path d="M297.025 263.523C297.922 263.122 296.154 258.673 294.105 260.352C293.571 260.789 293.179 261.519 293.562 262.165C293.974 262.858 296.253 263.869 297.025 263.523Z" fill="#FFB78C"/>
<path d="M296.735 267.731C296.795 267.664 296.813 267.57 296.816 267.48C296.858 266.442 294.391 264.624 293.967 266.107C293.844 266.538 294.064 267.171 294.391 267.46C294.744 267.77 296.392 268.113 296.735 267.731Z" fill="#FFB78C"/>
<path d="M342.93 72.0275C338.24 69.3198 333.985 69.0677 330.913 70.8541L326.062 73.673C329.134 71.8874 333.389 72.1387 338.079 74.8464C347.41 80.2337 354.944 93.2825 354.913 104.004C354.898 109.32 353.021 113.063 349.992 114.823L354.842 112.004C357.871 110.244 359.749 106.502 359.764 101.186C359.795 90.4636 352.261 77.4148 342.93 72.0275Z" fill="#4D4D4D"/>
<path d="M338.079 74.8464C347.41 80.2337 354.944 93.2826 354.913 104.004C354.883 114.71 347.299 119.031 337.968 113.644C328.652 108.265 321.104 95.2075 321.134 84.5021C321.165 73.7802 328.762 69.4674 338.079 74.8464Z" fill="black"/>
<path d="M338.53 82.6868C332.663 79.3001 327.912 82.0078 327.912 88.7399C327.912 95.4662 332.663 103.666 338.53 107.052C344.392 110.437 349.147 107.725 349.147 100.999C349.147 94.2681 344.392 86.0709 338.53 82.6868ZM335.937 98.9888V88.0354L344.204 98.2876L335.937 98.9888Z" fill="white"/>
<path d="M351.009 128.776L335.145 119.618C332.652 118.178 330.393 118.045 328.763 118.993L323.912 121.812C325.543 120.864 327.801 120.997 330.295 122.436L346.158 131.595C351.095 134.445 355.095 141.374 355.079 147.047L355.027 165.293C355.019 168.111 354.022 170.095 352.414 171.029L357.265 168.21C358.873 167.275 359.87 165.291 359.878 162.473L359.93 144.227C359.946 138.556 355.946 131.627 351.009 128.776Z" fill="#FFD166"/>
<path d="M346.158 131.595C351.095 134.445 355.095 141.374 355.079 147.047L355.027 165.293C355.01 170.965 350.984 173.26 346.048 170.41L330.183 161.25C325.232 158.392 321.231 151.463 321.248 145.79L321.3 127.544C321.316 121.872 325.342 119.577 330.294 122.436L346.158 131.595Z" fill="#FFAD66"/>
<path d="M338.53 134.522C332.663 131.135 327.912 133.843 327.912 140.575C327.912 147.302 332.663 155.501 338.53 158.888C344.392 162.272 349.147 159.56 349.147 152.835C349.147 146.103 344.392 137.905 338.53 134.522ZM335.937 150.823V139.87L344.204 150.122L335.937 150.823Z" fill="white"/>
<path d="M358.064 188.857L328.357 171.706C327.795 171.381 327.281 171.351 326.909 171.567L322.058 174.386C322.429 174.17 322.944 174.2 323.506 174.525L353.213 191.676C354.341 192.327 355.246 193.895 355.243 195.191L355.146 229.326C355.145 229.959 354.92 230.406 354.557 230.617L359.408 227.798C359.771 227.587 359.995 227.14 359.997 226.507L360.094 192.372C360.097 191.077 359.191 189.508 358.064 188.857Z" fill="#8482FF"/>
<path d="M353.212 191.676C354.34 192.327 355.246 193.895 355.242 195.192L355.146 229.327C355.142 230.605 354.231 231.125 353.103 230.474L323.396 213.323C322.283 212.68 321.363 211.104 321.366 209.824L321.463 175.689C321.466 174.393 322.392 173.882 323.506 174.525L353.212 191.676Z" fill="#4D4BB7"/>
<path d="M338.53 190.263C332.663 186.876 327.912 189.584 327.912 196.316C327.912 203.043 332.663 211.242 338.53 214.629C344.392 218.013 349.147 215.301 349.147 208.576C349.147 201.844 344.392 193.647 338.53 190.263ZM335.937 206.565V195.612L344.204 205.864L335.937 206.565Z" fill="white"/>
<path fill-rule="evenodd" clip-rule="evenodd" d="M349.833 233.283V231.031L346.704 229.224V231.476L349.833 233.283Z" fill="#231F20"/>
<path fill-rule="evenodd" clip-rule="evenodd" d="M355.448 236.524V234.272L352.318 232.465V234.717L355.448 236.524Z" fill="#231F20"/>
<path fill-rule="evenodd" clip-rule="evenodd" d="M361.369 239.908L360.419 237.142L357.694 235.568L358.033 238.016C359.15 238.661 360.273 239.316 361.369 239.908Z" fill="#231F20"/>
<path fill-rule="evenodd" clip-rule="evenodd" d="M332.97 223.546V221.294L329.84 219.487V221.739L332.97 223.546Z" fill="#231F20"/>
<path fill-rule="evenodd" clip-rule="evenodd" d="M338.584 226.788V224.536L335.454 222.729V224.981L338.584 226.788Z" fill="#231F20"/>
<path fill-rule="evenodd" clip-rule="evenodd" d="M344.18 230.019V227.767L341.05 225.96V228.211L344.18 230.019Z" fill="#231F20"/>
<path fill-rule="evenodd" clip-rule="evenodd" d="M317.461 210.171L319.336 209.879L319.328 206.748L317.366 206.334C317.372 207.619 317.398 208.897 317.461 210.171Z" fill="#231F20"/>
<path fill-rule="evenodd" clip-rule="evenodd" d="M321.336 216.733L322.515 215.257C321.605 214.724 320.711 213.727 320.117 212.593L318.465 213.455C319.189 214.827 320.255 216.046 321.336 216.733Z" fill="#231F20"/>
<path fill-rule="evenodd" clip-rule="evenodd" d="M327.277 220.259L327.388 218.072L324.663 216.498L323.927 218.32L327.277 220.259Z" fill="#231F20"/>
<path fill-rule="evenodd" clip-rule="evenodd" d="M317.366 190.32L319.328 191.453V187.861L317.366 186.728V190.32Z" fill="#231F20"/>
<path fill-rule="evenodd" clip-rule="evenodd" d="M317.366 196.763L319.328 197.896V194.303L317.366 193.17V196.763Z" fill="#231F20"/>
<path fill-rule="evenodd" clip-rule="evenodd" d="M317.366 203.233L319.328 204.226V200.725L317.366 199.592V203.233Z" fill="#231F20"/>
<path fill-rule="evenodd" clip-rule="evenodd" d="M317.366 170.969L319.328 172.102V168.843L317.366 167.194V170.969Z" fill="#231F20"/>
<path fill-rule="evenodd" clip-rule="evenodd" d="M317.366 177.411L319.328 178.544V174.952L317.366 173.819V177.411Z" fill="#231F20"/>
<path fill-rule="evenodd" clip-rule="evenodd" d="M317.366 183.833L319.328 184.966V181.373L317.366 180.241V183.833Z" fill="#231F20"/>
<path fill-rule="evenodd" clip-rule="evenodd" d="M325.678 162.7L326.088 165.188L328.953 166.843V164.592L325.678 162.7Z" fill="#231F20"/>
<path fill-rule="evenodd" clip-rule="evenodd" d="M319.816 159.858L321.239 162.714C322.078 162.729 323.028 163.458 323.924 163.94L323.028 161.195C321.937 160.638 320.82 159.853 319.816 159.858Z" fill="#231F20"/>
<path fill-rule="evenodd" clip-rule="evenodd" d="M317.395 164.128L319.328 166.322C319.332 165.804 319.318 165.273 319.338 164.764C319.365 164.26 319.49 163.819 319.701 163.48L317.952 160.795C317.688 161.195 317.523 161.712 317.468 162.297C317.421 162.888 317.415 163.507 317.395 164.128Z" fill="#231F20"/>
<path fill-rule="evenodd" clip-rule="evenodd" d="M342.687 172.52V174.772L345.816 176.579V174.327L342.687 172.52Z" fill="#231F20"/>
<path fill-rule="evenodd" clip-rule="evenodd" d="M337.072 169.279V171.53L340.202 173.337V171.086L337.072 169.279Z" fill="#231F20"/>
<path fill-rule="evenodd" clip-rule="evenodd" d="M331.476 166.048V168.3L334.607 170.107V167.855L331.476 166.048Z" fill="#231F20"/>
<path fill-rule="evenodd" clip-rule="evenodd" d="M359.786 182.394L359.12 184.26C360.028 184.792 360.938 185.29 361.845 185.851L363.075 184.422C361.998 183.704 360.901 183.054 359.786 182.394Z" fill="#231F20"/>
<path fill-rule="evenodd" clip-rule="evenodd" d="M353.936 179.015V181.267L356.957 183.01L357.126 180.857L353.936 179.015Z" fill="#231F20"/>
<path fill-rule="evenodd" clip-rule="evenodd" d="M348.34 175.785V178.036L351.471 179.844V177.592L348.34 175.785Z" fill="#231F20"/>
<path fill-rule="evenodd" clip-rule="evenodd" d="M366.722 200.939L364.76 199.806V203.398L366.722 204.531V200.939Z" fill="#231F20"/>
<path fill-rule="evenodd" clip-rule="evenodd" d="M366.72 194.216L364.76 193.875V197.003L366.722 198.062L366.72 194.216Z" fill="#231F20"/>
<path fill-rule="evenodd" clip-rule="evenodd" d="M365.412 187.097L363.797 188.025C364.454 189.133 364.795 190.388 364.76 191.411L366.651 191.195C366.644 189.953 366.206 188.441 365.412 187.097Z" fill="#231F20"/>
<path fill-rule="evenodd" clip-rule="evenodd" d="M366.722 220.29L364.76 219.157V222.749L366.722 223.882V220.29Z" fill="#231F20"/>
<path fill-rule="evenodd" clip-rule="evenodd" d="M366.722 213.848L364.76 212.715V216.307L366.722 217.44V213.848Z" fill="#231F20"/>
<path fill-rule="evenodd" clip-rule="evenodd" d="M366.722 207.426L364.76 206.293V209.886L366.722 211.018V207.426Z" fill="#231F20"/>
<path fill-rule="evenodd" clip-rule="evenodd" d="M366.3 239.854L364.517 237.212C364.175 237.983 363.454 238.343 362.596 238.189L363.97 241.048C364.994 241.195 365.864 240.76 366.3 239.854Z" fill="#231F20"/>
<path fill-rule="evenodd" clip-rule="evenodd" d="M366.722 233.356L364.76 231.779V234.907L366.684 237.157C366.724 235.925 366.724 234.639 366.722 233.356Z" fill="#231F20"/>
<path fill-rule="evenodd" clip-rule="evenodd" d="M366.722 226.778L364.76 225.645V229.237L366.722 230.37V226.778Z" fill="#231F20"/>
<path d="M90.8097 162.791L93.931 164.605C90.4785 166.472 88.1894 166.542 86.6848 165.668L83.5635 163.853C85.0689 164.728 87.3572 164.658 90.8097 162.791Z" fill="#FFD166"/>
<path d="M76.8596 169.205L73.7383 167.391C71.7615 166.243 69.7979 164.301 67.9629 161.256L71.0842 163.07C72.9193 166.114 74.8828 168.056 76.8596 169.205Z" fill="#FFD166"/>
<path d="M57.9504 131.171L88.9987 113.246C90.3146 112.486 91.5036 112.413 92.3614 112.912L95.4827 114.726C94.625 114.228 93.4359 114.3 92.12 115.06L61.0717 132.985C58.4703 134.488 56.3559 138.133 56.365 141.138L56.4359 166.109C56.44 167.59 56.9649 168.631 57.8086 169.121L54.6873 167.307C53.8427 166.816 53.3187 165.775 53.3145 164.294L53.2437 139.324C53.2354 136.318 55.349 132.672 57.9504 131.171Z" fill="#FFD166"/>
<path d="M61.0717 132.985C58.4703 134.487 56.3568 138.131 56.365 141.137L56.4359 166.108C56.4441 169.097 58.5717 170.294 61.1731 168.792L71.0841 163.07C76.9848 172.861 84.2137 171.25 88.9394 168.521C91.9404 166.789 93.8315 164.715 93.9312 164.606C83.2554 170.379 83.7045 158.974 84.063 155.576L92.2206 150.866C94.8359 149.356 96.9363 145.719 96.9281 142.73L96.8572 117.76C96.849 114.754 94.7354 113.55 92.1192 115.059L61.0717 132.985Z" fill="#FFAD66"/>
<path d="M61.7151 152.668C61.6756 152.33 61.6542 151.974 61.6533 151.599C61.6525 151.231 61.6715 150.85 61.7085 150.469L60.3555 150.747C60.1545 150.787 60.0441 150.604 60.1075 150.336L60.8252 147.359C60.8755 147.144 61.0246 146.941 61.1845 146.848C61.224 146.826 61.2636 146.81 61.3031 146.802L62.6528 146.526C62.9668 145.7 63.3442 144.886 63.7776 144.096L62.9363 143.261C62.811 143.134 62.8506 142.839 63.0187 142.598L64.9098 139.925C64.9765 139.829 65.0556 139.755 65.1339 139.711C65.2509 139.643 65.3671 139.638 65.4421 139.715L66.2776 140.553C66.8519 139.917 67.4592 139.335 68.0978 138.823L68.0929 137.191C68.0921 136.948 68.2618 136.654 68.4736 136.532L70.8121 135.182C71.023 135.06 71.1944 135.157 71.1953 135.4L71.2002 137.032C71.8396 136.806 72.4477 136.687 73.0212 136.66L73.8518 134.859C73.926 134.697 74.0413 134.567 74.1575 134.501C74.2358 134.455 74.3141 134.438 74.3825 134.456L76.2802 134.942C76.4515 134.987 76.4927 135.236 76.3683 135.507L75.5353 137.309C75.972 137.596 76.3527 137.973 76.6674 138.436L78.0147 137.155C78.0542 137.117 78.0946 137.086 78.1342 137.063C78.2948 136.97 78.4448 137.002 78.4959 137.158L79.2284 139.298C79.2927 139.492 79.1839 139.801 78.9829 139.993L77.6332 141.276C77.6694 141.615 77.6941 141.971 77.695 142.339C77.6958 142.713 77.6744 143.095 77.6398 143.476L78.9928 143.199C79.1938 143.158 79.3042 143.341 79.2408 143.609L78.5231 146.586C78.472 146.799 78.3229 147.005 78.1614 147.098C78.1218 147.12 78.0822 147.137 78.0427 147.144L76.693 147.42C76.3815 148.244 76.0041 149.057 75.5707 149.848L76.412 150.684C76.5372 150.811 76.4977 151.106 76.3271 151.348L74.4385 154.02C74.3709 154.117 74.2927 154.189 74.2152 154.234C74.0974 154.301 73.982 154.306 73.9062 154.231L73.0682 153.392C72.4964 154.029 71.8891 154.611 71.2505 155.123L71.2554 156.752C71.2562 156.998 71.0865 157.289 70.8747 157.411L68.5362 158.762C68.3253 158.884 68.1539 158.789 68.153 158.543L68.1481 156.915C67.5087 157.141 66.9006 157.26 66.3246 157.286L65.4965 159.088C65.4215 159.25 65.3053 159.38 65.1875 159.447C65.11 159.493 65.0317 159.51 64.965 159.492L63.0648 159.007C62.8968 158.961 62.8547 158.712 62.9791 158.442L63.8122 156.64C63.3755 156.35 62.9948 155.976 62.6776 155.514L61.3303 156.796C61.2916 156.833 61.252 156.862 61.2133 156.885C61.0535 156.978 60.9027 156.946 60.8516 156.792L60.119 154.652C60.0548 154.457 60.1635 154.149 60.3646 153.956L61.7151 152.668ZM69.6923 153.428C72.7963 151.636 75.3054 147.291 75.2947 143.724C75.2848 140.159 72.76 138.724 69.6552 140.516C66.5537 142.306 64.0446 146.648 64.0553 150.213C64.066 153.78 66.5907 155.219 69.6923 153.428Z" fill="white"/>
<path d="M80.8229 139.972C80.9102 139.395 81.0519 138.812 81.2415 138.231L80.4175 138.018C80.2947 137.986 80.2667 137.807 80.3548 137.615L81.3354 135.491C81.3889 135.375 81.4722 135.282 81.557 135.233C81.6123 135.201 81.6683 135.188 81.7169 135.201L82.5409 135.414C82.8754 134.863 83.2462 134.336 83.6451 133.848L83.3286 132.92C83.2825 132.78 83.3608 132.559 83.5033 132.422L85.0945 130.909C85.1233 130.881 85.1522 130.86 85.1802 130.843C85.2947 130.777 85.4018 130.8 85.4381 130.912L85.7545 131.843C85.9811 131.683 86.2069 131.531 86.4384 131.398C86.6724 131.262 86.899 131.152 87.1256 131.051L87.4355 129.759C87.4717 129.604 87.578 129.458 87.6925 129.392C87.7214 129.375 87.7502 129.364 87.7782 129.359L89.3727 129.033C89.5152 129.006 89.5952 129.136 89.549 129.329L89.2392 130.617C89.6397 130.644 90.0121 130.743 90.3483 130.905L91.1682 129.743C91.216 129.675 91.272 129.623 91.328 129.591C91.4129 129.542 91.4961 129.539 91.5505 129.592L92.5393 130.579C92.6291 130.668 92.6011 130.88 92.48 131.053L91.6601 132.215C91.8521 132.576 91.9963 132.994 92.0869 133.468L93.1021 132.882C93.2545 132.794 93.3773 132.861 93.3781 133.037L93.3839 134.961C93.3839 135.133 93.2628 135.344 93.1095 135.432L92.0944 136.018C92.007 136.595 91.8661 137.178 91.6766 137.759L92.5006 137.971C92.6225 138.004 92.6514 138.183 92.5632 138.372L91.5827 140.499C91.5291 140.615 91.4459 140.708 91.361 140.757C91.3058 140.789 91.2498 140.802 91.2011 140.789L90.3771 140.576C90.0418 141.127 89.6718 141.654 89.273 142.142L89.5894 143.07C89.6355 143.21 89.5573 143.43 89.4147 143.566L87.8236 145.082C87.7964 145.108 87.7684 145.129 87.7403 145.144C87.625 145.211 87.5162 145.189 87.4791 145.078L87.1627 144.148C86.9361 144.308 86.7095 144.456 86.4755 144.591C86.244 144.725 86.0174 144.839 85.7908 144.94L85.4809 146.232C85.4439 146.385 85.3359 146.533 85.2214 146.599C85.1934 146.614 85.1662 146.626 85.1381 146.632L83.5437 146.955C83.4012 146.984 83.3212 146.854 83.3674 146.661L83.6772 145.373C83.2767 145.346 82.9043 145.247 82.5673 145.085L81.7474 146.247C81.6996 146.315 81.6436 146.367 81.5875 146.399C81.5027 146.448 81.4194 146.451 81.3651 146.398L80.3763 145.408C80.2864 145.322 80.3145 145.11 80.4364 144.937L81.2563 143.775C81.0643 143.414 80.9201 142.997 80.8295 142.522L79.8143 143.107C79.6618 143.196 79.5391 143.126 79.5382 142.953L79.5325 141.029C79.5317 140.854 79.6536 140.646 79.806 140.558L80.8229 139.972ZM86.4706 142.618C88.6921 141.336 90.4876 138.225 90.4801 135.672C90.4727 133.12 88.6657 132.09 86.4442 133.373C84.2252 134.654 82.4297 137.764 82.4371 140.317C82.4445 142.869 84.2524 143.899 86.4706 142.618Z" fill="white"/>
<path d="M68.2552 263.218L34.2554 243.588C33.6027 243.211 33.6843 242.553 34.4383 242.118L67.8457 222.829C68.5997 222.394 69.7393 222.347 70.3919 222.724L104.392 242.354C105.044 242.731 104.962 243.389 104.209 243.824L70.8014 263.112C70.0474 263.547 68.907 263.594 68.2552 263.218Z" fill="#F2F2F2"/>
<path d="M69.5259 244.434L37.0273 225.671L69.3232 207.025L101.821 225.788L69.5259 244.434Z" fill="#F2F2F2"/>
<path d="M69.5144 242.387L40.573 225.677L69.3339 209.073L98.2752 225.782L69.5144 242.387Z" fill="#E6E6E6"/>
<path d="M69.5259 260.923V244.434L101.821 225.788V242.277L69.5259 260.923Z" fill="#BFBFBF"/>
<path d="M37.0273 225.671V242.16L69.5259 260.923V244.434L37.0273 225.671Z" fill="#E6E6E6"/>
<path d="M47.6263 229.75L45.3388 228.436L44.9491 223.145L44.1375 211.851L46.4092 212.955L47.0585 221.928L47.6263 229.75Z" fill="#4D4D4D"/>
<path d="M46.4085 212.953L44.1301 211.85L72.4766 195.484L74.7549 196.587L46.4085 212.953Z" fill="#737373"/>
<path d="M77.2097 230.415L64.9255 237.506L62.9941 238.626L62.8317 238.723L62.8153 238.513L61.5982 237.815L59.3108 236.5L58.1094 235.802L55.822 234.488L54.6049 233.79L52.3167 232.46L51.1318 231.778L48.8279 230.447L47.6265 229.75L47.0587 221.928L46.4094 212.955L74.7591 196.581L74.8729 198.204L75.0508 200.508L75.1646 202.131V202.147L75.3269 204.452L75.4406 206.074L75.6194 208.395L75.7323 210.001L75.8946 212.322L75.9441 212.889L76.0083 213.944L76.1871 216.265L77.2097 230.415Z" fill="#1F2125"/>
<path d="M51.1318 231.778L48.8279 230.447L48.1621 221.295L47.6265 213.928L49.9147 215.032L50.2715 220.078L51.1318 231.778Z" fill="#4D4D4D"/>
<path d="M49.9078 215.032L47.6287 213.929L75.9759 197.564L78.2543 198.666L49.9078 215.032Z" fill="#737373"/>
<path d="M80.7143 232.492L66.5481 240.671L65.1036 239.843L62.9941 238.626L62.8318 238.723L62.8153 238.512L61.5983 237.815L59.3109 236.5L58.1095 235.802L55.8221 234.488L54.605 233.79L52.3168 232.46L51.1318 231.778L50.2716 220.078L49.9148 215.032L75.0509 200.508L78.248 198.658L78.3617 200.297L78.5397 202.602L78.6534 204.208L78.8158 206.545L78.946 208.151L79.1083 210.472L79.2212 212.078V212.094L79.4 214.399V214.415L79.4329 214.902L80.7143 232.492Z" fill="#1F2125"/>
<path d="M54.6047 233.79L52.3165 232.46L51.3755 219.445L51.1316 216.005L53.4034 217.109L53.4849 218.228L54.6047 233.79Z" fill="#4D4D4D"/>
<path d="M53.4066 217.111L51.1274 216.008L79.4747 199.643L81.753 200.745L53.4066 217.111Z" fill="#737373"/>
<path d="M84.155 233.937L69.5175 242.391L66.5478 240.671L65.1033 239.843L62.9939 238.626L62.8315 238.723L62.8151 238.513L61.598 237.815L59.3106 236.5L58.1092 235.802L55.8218 234.488L54.6047 233.79L53.4849 218.228L53.4033 217.109L75.3267 204.452L81.753 200.751L81.8668 202.358L82.0447 204.678L82.1585 206.285V206.302L82.3208 208.605L82.4345 210.229L82.6133 212.549L82.9215 216.914L84.155 233.937Z" fill="#1F2125"/>
<path d="M58.1092 235.802L55.8218 234.488L54.6204 218.082L56.9086 219.186L58.1092 235.802Z" fill="#4D4D4D"/>
<path d="M56.9053 219.191L54.627 218.087L82.9734 201.722L85.2526 202.824L56.9053 219.191Z" fill="#737373"/>
<path d="M87.3835 232.071L84.1551 233.937L69.5175 242.391L66.5478 240.671L65.1034 239.843L62.9939 238.626L62.8316 238.724L62.8151 238.513L61.5981 237.816L59.3106 236.5L58.1093 235.802L56.9087 219.186L71.8865 210.553L75.6193 208.395L78.8156 206.545L82.0448 204.678L85.2576 202.828L85.3713 204.435L85.5501 206.756L85.6638 208.362L85.8261 210.699L86.426 218.943L87.3835 232.071Z" fill="#1F2125"/>
<path d="M61.5981 237.816L59.3106 236.5L58.1257 220.16L60.3975 221.263L61.5981 237.816Z" fill="#4D4D4D"/>
<path d="M60.4049 221.27L58.1257 220.167L86.473 203.801L88.7513 204.903L60.4049 221.27Z" fill="#737373"/>
<path d="M90.5971 230.221L87.3835 232.071L84.155 233.937L69.5175 242.391L66.5478 240.671L65.1033 239.843L62.9939 238.626L62.8316 238.724L62.8151 238.513L61.598 237.815L60.3975 221.263L75.4239 212.598L75.8944 212.322L79.108 210.472L82.3208 208.606L85.5501 206.756L88.7472 204.906L88.8601 206.513L89.0389 208.833V208.849L89.9148 220.955L90.5971 230.221Z" fill="#1F2125"/>
<path d="M65.1034 239.843L62.994 238.626L62.8317 238.724L62.8152 238.513L61.6311 222.253L63.9029 223.357L64.9255 237.506L65.1034 239.843Z" fill="#4D4D4D"/>
<path d="M63.9036 223.348L61.6252 222.246L89.9717 205.88L92.2509 206.983L63.9036 223.348Z" fill="#737373"/>
<path d="M93.7934 228.354L90.5971 230.221L87.3835 232.071L84.1551 233.937L69.5176 242.391L66.5479 240.671L65.1034 239.843L64.9254 237.506L63.9028 223.357L76.187 216.265L78.9944 214.642L79.3998 214.415L82.2558 212.76L82.6134 212.549L85.8262 210.699L89.0389 208.849L92.2517 206.983L93.4045 222.967L93.7934 228.354Z" fill="#1F2125"/>
<path d="M71.8973 233.588L75.9951 233.976V235.799L69.1089 235.198L75.9951 226.663V228.487L71.8973 233.588Z" fill="#F2F2F2"/>
<path d="M79.0956 236.502L77.7715 237.266C79.08 232.458 80.0564 228.855 80.7008 226.457L82.165 221.052L83.49 220.287L79.0956 236.502Z" fill="#F2F2F2"/>
<path d="M89.0678 223.674L84.9543 223.295V221.49L91.8562 222.064L84.9543 230.626V228.784L89.0678 223.674Z" fill="#F2F2F2"/>
<path d="M231.436 378.348C223.557 382.897 210.742 382.873 202.814 378.296C194.885 373.719 194.845 366.32 202.724 361.771C210.603 357.221 223.417 357.245 231.346 361.823C239.275 366.401 239.315 373.799 231.436 378.348Z" fill="#F2F2F2"/>
<path d="M234.331 368.854C234.361 363.354 226.662 358.854 217.135 358.802C207.609 358.751 199.862 363.168 199.832 368.668C199.802 374.168 207.501 378.669 217.028 378.72C226.554 378.771 234.301 374.354 234.331 368.854Z" fill="#C4C4C4"/>
<path d="M233.747 336.268H200.423V367.494C200.332 370.033 201.967 372.594 205.333 374.538C211.861 378.307 222.413 378.327 228.901 374.581C232.265 372.638 233.871 370.065 233.732 367.512L233.747 336.268Z" fill="#D9D9D9"/>
<path d="M234.33 336.908C234.36 331.408 226.661 326.908 217.134 326.856C207.608 326.805 199.861 331.222 199.831 336.722C199.801 342.222 207.5 346.722 217.027 346.774C226.553 346.825 234.3 342.408 234.33 336.908Z" fill="#F2F2F2"/>
<path d="M220.694 346.574C220.694 346.574 220.691 346.577 220.689 346.574C215.184 347.233 209.214 346.321 204.921 343.844C204.157 343.404 203.477 342.931 202.885 342.434L205.814 340.807L220.068 344.454L220.694 346.574Z" fill="#FFD166"/>
<path d="M230.67 339.873C229.968 340.933 228.877 341.927 227.398 342.781C221.734 346.05 212.525 346.036 206.825 342.744C205.314 341.874 204.203 340.86 203.49 339.778C201.511 336.78 202.6 333.271 206.762 330.867C212.426 327.598 221.635 327.613 227.335 330.904C231.545 333.336 232.66 336.873 230.67 339.873Z" fill="#999999"/>
<path d="M230.67 339.873C229.968 340.932 228.877 341.927 227.398 342.781C221.734 346.05 212.525 346.035 206.825 342.744C205.314 341.873 204.203 340.86 203.49 339.778C204.191 338.718 205.282 337.724 206.762 336.87C212.425 333.601 221.634 333.615 227.335 336.906C228.845 337.777 229.956 338.791 230.67 339.873Z" fill="#FFAD66"/>
<path d="M206.761 332.402C212.425 329.133 221.635 329.149 227.334 332.44C229.859 333.897 231.268 335.753 231.566 337.651C231.95 335.244 230.539 332.753 227.334 330.904C221.635 327.613 212.424 327.597 206.761 330.866C203.607 332.688 202.22 335.145 202.595 337.533C202.894 335.658 204.282 333.834 206.761 332.402Z" fill="#D9D9D9"/>
<path d="M220.278 376.077C220.239 376.084 220.198 376.089 220.159 376.089C219.842 376.098 219.535 375.915 219.306 375.688C218.608 375.004 218.397 373.942 217.726 373.228C217.183 372.644 216.386 372.349 215.833 371.772C215.423 371.341 215.174 370.781 214.769 370.345C214.364 369.912 213.684 369.621 213.178 369.931C212.822 370.147 212.555 370.631 212.147 370.555C212.025 370.531 211.92 370.456 211.826 370.377C211.181 369.829 210.909 368.947 210.853 368.101C210.797 367.255 210.921 366.41 210.912 365.561C210.905 365.153 210.867 364.736 210.715 364.359C210.345 363.443 209.37 362.885 208.966 361.982C208.746 361.491 208.688 360.891 208.273 360.549C207.898 360.244 207.365 360.258 206.885 360.286C206.756 360.295 206.621 360.305 206.515 360.38C206.379 360.479 206.335 360.654 206.299 360.816C205.633 364.021 206.29 367.503 204.973 370.503C204.75 371.011 204.422 371.538 203.887 371.695C203.674 371.758 203.432 371.718 203.24 371.613C202.568 371.249 202.882 370.077 202.882 369.429V342.435C203.475 342.932 204.154 343.405 204.918 343.845C209.211 346.325 215.184 347.236 220.691 346.575V372.108C220.694 372.845 221.103 375.925 220.278 376.077Z" fill="#FFAD66"/>
<path d="M281.878 349.847C281.913 343.394 272.879 338.114 261.702 338.053C250.524 337.993 241.434 343.175 241.4 349.628C241.365 356.081 250.398 361.362 261.576 361.422C272.753 361.482 281.843 356.3 281.878 349.847Z" fill="#F2F2F2"/>
<path d="M278.888 348.542C278.918 343.042 271.219 338.541 261.692 338.49C252.166 338.439 244.419 342.856 244.389 348.356C244.359 353.856 252.058 358.356 261.585 358.408C271.112 358.459 278.859 354.042 278.888 348.542Z" fill="#C4C4C4"/>
<path d="M278.306 315.957H244.983V347.183C244.891 349.722 246.526 352.283 249.892 354.227C256.421 357.996 266.973 358.016 273.46 354.27C276.824 352.328 278.43 349.754 278.291 347.201L278.306 315.957Z" fill="#D9D9D9"/>
<path d="M278.887 316.596C278.917 311.096 271.218 306.595 261.691 306.544C252.165 306.492 244.418 310.909 244.388 316.41C244.358 321.91 252.057 326.41 261.584 326.462C271.111 326.513 278.858 322.096 278.887 316.596Z" fill="#F2F2F2"/>
<path d="M265.252 326.264C265.252 326.264 265.25 326.266 265.248 326.264C259.743 326.922 253.772 326.011 249.479 323.534C248.716 323.093 248.036 322.62 247.443 322.123L250.373 320.496L264.627 324.143L265.252 326.264Z" fill="#8482FF"/>
<path d="M275.229 319.562C274.527 320.622 273.436 321.616 271.956 322.47C266.293 325.74 257.084 325.725 251.384 322.434C249.872 321.563 248.762 320.549 248.049 319.467C246.07 316.47 247.159 312.96 251.321 310.557C256.984 307.287 266.193 307.302 271.894 310.593C276.104 313.026 277.22 316.562 275.229 319.562Z" fill="#999999"/>
<path d="M275.228 319.562C274.527 320.622 273.436 321.616 271.956 322.47C266.293 325.74 257.084 325.725 251.384 322.434C249.872 321.563 248.762 320.549 248.049 319.467C248.75 318.408 249.841 317.413 251.321 316.559C256.984 313.29 266.193 313.305 271.894 316.596C273.405 317.467 274.516 318.48 275.228 319.562Z" fill="#4D4BB7"/>
<path d="M251.32 312.092C256.983 308.823 266.194 308.839 271.893 312.13C274.418 313.587 275.827 315.443 276.124 317.341C276.509 314.934 275.097 312.444 271.893 310.594C266.194 307.303 256.983 307.287 251.32 310.557C248.166 312.378 246.779 314.835 247.153 317.223C247.453 315.347 248.841 313.524 251.32 312.092Z" fill="#D9D9D9"/>
<path d="M264.838 355.766C264.798 355.774 264.758 355.778 264.718 355.778C264.402 355.787 264.095 355.605 263.865 355.377C263.168 354.693 262.957 353.631 262.286 352.917C261.742 352.333 260.945 352.038 260.392 351.462C259.982 351.031 259.734 350.47 259.329 350.035C258.923 349.601 258.243 349.31 257.737 349.62C257.381 349.836 257.114 350.32 256.707 350.244C256.585 350.221 256.479 350.145 256.385 350.066C255.741 349.518 255.469 348.636 255.413 347.791C255.357 346.944 255.48 346.099 255.471 345.25C255.464 344.842 255.427 344.426 255.274 344.048C254.904 343.132 253.93 342.574 253.527 341.672C253.307 341.18 253.248 340.58 252.833 340.238C252.458 339.933 251.927 339.947 251.445 339.975C251.317 339.984 251.181 339.994 251.075 340.069C250.939 340.168 250.895 340.343 250.859 340.505C250.194 343.71 250.85 347.193 249.533 350.192C249.31 350.7 248.982 351.228 248.448 351.385C248.234 351.448 247.993 351.409 247.801 351.303C247.128 350.94 247.442 349.768 247.442 349.12V322.126C248.036 322.622 248.715 323.095 249.478 323.536C253.771 326.016 259.745 326.927 265.251 326.266V351.799C265.252 352.535 265.663 355.614 264.838 355.766Z" fill="#4D4BB7"/>
<path d="M355.58 347.675C347.701 352.224 334.886 352.201 326.957 347.623C319.029 343.045 318.989 335.647 326.868 331.097C334.747 326.548 347.561 326.572 355.49 331.149C363.419 335.727 363.458 343.126 355.58 347.675Z" fill="#F2F2F2"/>
<path d="M353.459 345.162C346.743 349.039 335.822 349.019 329.064 345.118C322.307 341.216 322.273 334.911 328.988 331.034C335.703 327.157 346.625 327.177 353.382 331.077C360.14 334.978 360.174 341.285 353.459 345.162Z" fill="#C4C4C4"/>
<path d="M357.891 305.594H324.567V336.821C324.476 339.36 326.11 341.921 329.477 343.864C336.005 347.633 346.557 347.653 353.045 343.907C356.409 341.965 358.015 339.392 357.876 336.838L357.891 305.594Z" fill="#D9D9D9"/>
<path d="M358.47 306.233C358.5 300.733 350.801 296.232 341.274 296.181C331.747 296.129 324 300.546 323.971 306.046C323.941 311.547 331.64 316.047 341.167 316.098C350.693 316.15 358.44 311.733 358.47 306.233Z" fill="#F2F2F2"/>
<path d="M344.837 315.901C344.837 315.901 344.834 315.903 344.832 315.901C339.327 316.559 333.357 315.648 329.064 313.171C328.3 312.73 327.62 312.257 327.028 311.76L329.957 310.134L344.211 313.781L344.837 315.901Z" fill="#737373"/>
<path d="M354.814 309.199C354.112 310.259 353.022 311.254 351.542 312.107C345.878 315.377 336.669 315.362 330.969 312.071C329.458 311.2 328.347 310.187 327.634 309.105C325.655 306.107 326.744 302.597 330.906 300.194C336.57 296.924 345.779 296.939 351.479 300.23C355.689 302.663 356.805 306.199 354.814 309.199Z" fill="#999999"/>
<path d="M354.814 309.199C354.112 310.259 353.021 311.254 351.542 312.107C345.878 315.377 336.669 315.362 330.969 312.071C329.458 311.2 328.347 310.187 327.634 309.105C328.335 308.045 329.426 307.05 330.906 306.197C336.569 302.927 345.779 302.942 351.479 306.233C352.989 307.104 354.1 308.118 354.814 309.199Z" fill="#1F2125"/>
<path d="M330.904 301.73C336.568 298.46 345.778 298.477 351.477 301.767C354.002 303.225 355.411 305.08 355.708 306.979C356.093 304.571 354.681 302.081 351.477 300.231C345.778 296.941 336.567 296.924 330.904 300.194C327.75 302.015 326.363 304.472 326.737 306.86C327.037 304.985 328.426 303.161 330.904 301.73Z" fill="#D9D9D9"/>
<path d="M344.422 345.403C344.383 345.41 344.342 345.415 344.303 345.415C343.986 345.424 343.679 345.242 343.45 345.015C342.752 344.331 342.541 343.269 341.87 342.554C341.326 341.971 340.53 341.676 339.977 341.099C339.566 340.668 339.318 340.108 338.913 339.672C338.508 339.238 337.828 338.947 337.322 339.257C336.966 339.473 336.699 339.958 336.291 339.88C336.169 339.857 336.064 339.782 335.97 339.702C335.325 339.154 335.053 338.273 334.997 337.427C334.941 336.581 335.065 335.735 335.056 334.887C335.048 334.479 335.011 334.062 334.859 333.685C334.489 332.768 333.514 332.21 333.111 331.308C332.891 330.816 332.833 330.216 332.417 329.874C332.042 329.57 331.511 329.584 331.031 329.612C330.902 329.621 330.766 329.63 330.661 329.705C330.525 329.804 330.48 329.98 330.445 330.141C329.779 333.347 330.436 336.829 329.118 339.828C328.896 340.337 328.568 340.864 328.033 341.021C327.819 341.085 327.578 341.045 327.386 340.939C326.714 340.576 327.028 339.404 327.028 338.755V311.761C327.62 312.258 328.3 312.731 329.064 313.172C333.357 315.651 339.33 316.563 344.837 315.902V341.434C344.837 342.172 345.247 345.251 344.422 345.403Z" fill="#1F2125"/>
<path d="M75.6975 329.111C74.6148 329.736 72.8762 329.736 71.8 329.111L43.461 312.642C42.3989 312.025 42.4046 311.018 43.4882 310.393L72.0126 293.924C73.0813 293.307 74.834 293.299 75.8961 293.916L104.235 310.384C105.311 311.01 105.291 312.025 104.223 312.642L75.6975 329.111Z" fill="#F2F2F2"/>
<path d="M75.5402 326.587L101.416 311.648C101.906 311.365 102.153 310.99 102.152 310.615L102.138 308.004C102.139 308.379 101.892 308.754 101.402 309.035L75.5262 323.975C74.5439 324.542 72.9668 324.542 71.9904 323.975L46.2824 309.035C45.8053 308.759 45.5655 308.394 45.5647 308.029L45.5787 310.64C45.5795 311.006 45.8193 311.369 46.2964 311.647L72.0044 326.587C72.9808 327.155 74.558 327.155 75.5402 326.587Z" fill="#FFAD66"/>
<path d="M75.5261 323.976C74.5439 324.543 72.9668 324.543 71.9903 323.976L46.2823 309.036C45.3191 308.476 45.324 307.563 46.3062 306.995L72.1823 292.056C73.1522 291.496 74.7417 291.488 75.7049 292.049L101.413 306.989C102.389 307.555 102.371 308.477 101.401 309.036L75.5261 323.976Z" fill="#FFD166"/>
<path d="M78.7414 302.964C81.5875 302.26 84.2144 301.891 86.6205 301.857L87.4322 303.508C85.1431 303.61 82.7716 303.982 80.3177 304.625C77.8631 305.266 75.5451 306.217 73.3615 307.478C71.1788 308.738 69.5266 310.079 68.4068 311.501C67.2862 312.921 66.6459 314.288 66.4853 315.601L63.5996 315.147C63.6754 313.749 64.3231 312.227 65.5426 310.584C66.7621 308.941 68.556 307.436 70.9209 306.07C73.2882 304.704 75.8945 303.669 78.7414 302.964Z" fill="white"/>
<path d="M124.914 103.201L118.921 106.683C118.942 106.672 118.961 106.657 118.979 106.639L124.971 103.156C124.953 103.175 124.934 103.189 124.914 103.201Z" fill="black"/>
<path d="M110.993 89.8596L116.985 86.3774C117.048 86.3403 117.128 86.328 117.22 86.3469L111.228 89.8292C111.136 89.811 111.056 89.8234 110.993 89.8596Z" fill="black"/>
<path d="M120.256 105.36L126.248 101.877L124.971 103.157L118.979 106.639L120.256 105.36Z" fill="black"/>
<path d="M111.228 89.8291L117.22 86.3469L119.282 86.7688L113.289 90.2519L111.228 89.8291Z" fill="black"/>
<path d="M133.569 110.101L127.577 113.583C127.68 113.523 127.745 113.394 127.745 113.209L133.737 109.726C133.737 109.912 133.673 110.04 133.569 110.101Z" fill="black"/>
<path d="M127.752 110.727L133.744 107.244L133.737 109.726L127.745 113.209L127.752 110.727Z" fill="black"/>
<path d="M112.123 80.4421L118.115 76.9599C118.223 76.8973 118.372 76.9104 118.527 77.0003C118.588 77.0349 118.649 77.0818 118.71 77.1395L112.717 80.6217C112.656 80.5641 112.595 80.5171 112.535 80.4825C112.38 80.3927 112.231 80.3795 112.123 80.4421Z" fill="black"/>
<path d="M112.718 80.6218L118.71 77.1395L120.763 79.0924L114.771 82.5746L112.718 80.6218Z" fill="black"/>
<path d="M119.361 85.148L125.353 81.6658C123.817 82.5582 122.864 84.455 122.857 87.152C122.841 92.5879 126.664 99.2079 131.394 101.939L125.402 105.421C120.672 102.69 116.85 96.0693 116.865 90.6342C116.872 87.9372 117.825 86.0404 119.361 85.148Z" fill="black"/>
<path d="M137.484 102.534L131.492 106.016C129.936 106.921 127.78 106.794 125.402 105.421L131.394 101.939C133.772 103.312 135.927 103.438 137.484 102.534Z" fill="black"/>
<path d="M141.559 110.404L135.567 113.886C135.765 113.771 135.8 113.426 135.629 113.053L141.621 109.571C141.792 109.943 141.757 110.288 141.559 110.404Z" fill="black"/>
<path d="M134.359 110.306L140.352 106.824L141.622 109.57L135.63 113.053L134.359 110.306Z" fill="black"/>
<path d="M136.089 108.592L142.081 105.109C141.597 105.812 141.017 106.382 140.351 106.824L134.359 110.306C135.025 109.866 135.605 109.294 136.089 108.592Z" fill="black"/>
<path d="M119.062 77.1264L125.054 73.6442L126.321 76.3881L120.328 79.8703L119.062 77.1264Z" fill="black"/>
<path d="M124.588 73.0978C124.469 73.0295 124.349 73.0023 124.244 73.0295L121.353 73.7702C121.327 73.7768 121.303 73.7875 121.28 73.7999L115.288 77.2821C115.311 77.2689 115.334 77.259 115.361 77.2525L118.252 76.5117C118.357 76.4845 118.477 76.5109 118.596 76.5801C118.774 76.6831 118.949 76.8792 119.062 77.1264L125.054 73.6442C124.941 73.397 124.766 73.2008 124.588 73.0978Z" fill="#666666"/>
<path d="M144.724 107.238L138.732 110.72C138.794 110.684 138.843 110.623 138.871 110.538L144.863 107.056C144.835 107.141 144.787 107.202 144.724 107.238Z" fill="black"/>
<path d="M120.328 79.8703L126.32 76.3881C127.193 76.4284 128.121 76.6114 129.095 76.955L123.103 80.4372C122.13 80.0936 121.202 79.9107 120.328 79.8703Z" fill="black"/>
<path d="M139.988 107.277L145.98 103.795L144.864 107.055L138.871 110.538L139.988 107.277Z" fill="black"/>
<path d="M145.606 102.736L143.549 100.78L137.557 104.262L139.614 106.218C139.919 106.51 140.085 106.981 139.988 107.277L145.98 103.795C146.078 103.499 145.912 103.028 145.606 102.736Z" fill="#666666"/>
<path d="M137.567 100.913L143.559 97.4305C143.616 98.0123 143.645 98.5916 143.644 99.1527C143.642 99.7229 143.609 100.267 143.55 100.781L137.558 104.263C137.617 103.749 137.65 103.205 137.652 102.635C137.653 102.074 137.624 101.495 137.567 100.913Z" fill="black"/>
<path d="M127.83 83.1663L133.822 79.6841C134.794 80.4644 135.72 81.351 136.595 82.3209L130.603 85.8031C129.728 84.8333 128.803 83.9466 127.83 83.1663Z" fill="black"/>
<path d="M127.837 80.6803L133.829 77.1973L133.823 79.6841L127.83 83.1663L127.837 80.6803Z" fill="black"/>
<path d="M133.25 76.1936L129.687 74.1361C129.525 74.0422 129.379 74.0339 129.273 74.0949L123.281 77.5771C123.387 77.5161 123.533 77.5244 123.696 77.6183L127.259 79.6758C127.58 79.8621 127.84 80.3103 127.839 80.6803L133.831 77.1981C133.831 76.8281 133.571 76.379 133.25 76.1936Z" fill="#666666"/>
<path d="M134.413 91.2019L140.405 87.7197C141.066 88.9219 141.641 90.1645 142.119 91.4228L136.127 94.905C135.649 93.6468 135.074 92.405 134.413 91.2019Z" fill="black"/>
<path d="M145.855 97.822L139.863 101.304C140.012 101.218 140.074 100.996 140.006 100.71L145.998 97.2279C146.066 97.513 146.004 97.7355 145.855 97.822Z" fill="black"/>
<path d="M138.912 96.1731L144.904 92.6909L145.999 97.2279L140.007 100.71L138.912 96.1731Z" fill="black"/>
<path d="M144.357 91.9131C144.297 91.8785 144.236 91.8538 144.177 91.8422L142.12 91.422L136.128 94.9042L138.186 95.3245C138.246 95.336 138.307 95.3607 138.366 95.3945C138.609 95.5346 138.837 95.8452 138.913 96.1724L144.905 92.6901C144.828 92.3638 144.601 92.0532 144.357 91.9131Z" fill="#666666"/>
<path d="M135.695 89.9289L141.687 86.4467L140.405 87.7197L134.413 91.202L135.695 89.9289Z" fill="black"/>
<path d="M139.614 106.218C139.919 106.51 140.085 106.981 139.988 107.277L138.871 110.537C138.792 110.772 138.563 110.821 138.319 110.68C138.26 110.647 138.2 110.601 138.141 110.544L136.089 108.591C135.605 109.294 135.025 109.865 134.359 110.306L135.629 113.051C135.818 113.464 135.755 113.842 135.499 113.913L132.603 114.651C132.501 114.679 132.382 114.652 132.264 114.584C132.085 114.481 131.907 114.282 131.793 114.037L130.531 111.291C129.653 111.253 128.725 111.069 127.751 110.727L127.744 113.209C127.743 113.583 127.483 113.727 127.161 113.541L123.598 111.484C123.275 111.298 123.017 110.854 123.017 110.48L123.024 107.998C122.052 107.218 121.126 106.331 120.255 105.36L118.977 106.64C118.862 106.753 118.686 106.748 118.507 106.644C118.389 106.575 118.27 106.465 118.167 106.318L115.288 102.247C115.03 101.879 114.969 101.429 115.159 101.235L116.44 99.9619C115.779 98.7547 115.204 97.5171 114.731 96.2613L112.673 95.8411C112.613 95.8287 112.552 95.8048 112.493 95.7702C112.247 95.6285 112.019 95.3145 111.941 94.9899L110.847 90.4537C110.751 90.0459 110.919 89.7682 111.225 89.8292L113.286 90.2519C113.233 89.6726 113.2 89.0908 113.201 88.5206C113.203 87.9595 113.239 87.4181 113.295 86.9015L111.238 84.9461C110.933 84.6536 110.767 84.1831 110.865 83.8873L111.981 80.6267C112.059 80.3894 112.287 80.3416 112.533 80.4833C112.593 80.518 112.655 80.5649 112.715 80.6226L114.768 82.5755C115.247 81.871 115.827 81.295 116.493 80.8583L115.223 78.1127C115.035 77.6999 115.097 77.3217 115.358 77.2533L118.249 76.5125C118.354 76.4853 118.474 76.5117 118.593 76.5809C118.771 76.6839 118.946 76.88 119.059 77.1272L120.325 79.8711C121.199 79.9115 122.126 80.0944 123.1 80.438L123.107 77.952C123.108 77.582 123.369 77.4337 123.691 77.6199L127.254 79.6775C127.575 79.8637 127.835 80.312 127.833 80.6819L127.826 83.1679C128.798 83.9483 129.724 84.8349 130.599 85.8047L131.873 84.5275C131.988 84.4114 132.165 84.4188 132.343 84.5218C132.462 84.5902 132.582 84.7022 132.684 84.8489L135.565 88.9228C135.821 89.2886 135.882 89.7393 135.691 89.9321L134.409 91.2052C135.07 92.4083 135.645 93.65 136.123 94.9083L138.181 95.3285C138.241 95.3401 138.301 95.3648 138.361 95.3986C138.604 95.5386 138.832 95.8493 138.908 96.1764L140.003 100.713C140.098 101.12 139.931 101.398 139.624 101.337L137.564 100.914C137.62 101.496 137.65 102.075 137.648 102.637C137.647 103.207 137.614 103.751 137.554 104.265L139.614 106.218ZM125.402 105.421C130.129 108.15 133.976 105.957 133.992 100.521C134.007 95.0904 130.185 88.4745 125.458 85.7454C120.728 83.0147 116.88 85.2024 116.865 90.6334C116.849 96.0693 120.672 102.689 125.402 105.421Z" fill="#333333"/>
<path d="M141.562 85.4372L138.68 81.3634C138.578 81.2167 138.458 81.1055 138.339 81.0362C138.189 80.9497 138.041 80.9308 137.929 80.9959L131.937 84.4781C132.048 84.413 132.197 84.4319 132.347 84.5185C132.466 84.5869 132.586 84.6989 132.688 84.8456L135.57 88.9194C135.825 89.2853 135.886 89.736 135.695 89.9288L141.687 86.4466C141.878 86.2538 141.817 85.8031 141.562 85.4372Z" fill="#666666"/>
<path d="M114.381 61.0469L121.515 56.9005C121.534 56.8898 121.555 56.8808 121.577 56.875L114.443 61.0214C114.42 61.028 114.4 61.0362 114.381 61.0469Z" fill="#4D4BB7"/>
<path d="M130.568 69.9254L123.434 74.0718C123.486 74.0413 123.528 73.9894 123.552 73.9169L130.686 69.7705C130.662 69.843 130.621 69.8949 130.568 69.9254Z" fill="#4D4BB7"/>
<path d="M114.442 61.0221L121.577 56.8757L123.072 56.4901L115.937 60.6365L114.442 61.0221Z" fill="#4D4BB7"/>
<path d="M124.126 72.2286L131.26 68.083L130.686 69.7706L123.552 73.9161L124.126 72.2286Z" fill="#4D4BB7"/>
<path d="M112.992 51.7513L120.126 47.6049C120.217 47.5522 120.344 47.5612 120.484 47.642L113.35 51.7884C113.209 51.7076 113.083 51.6986 112.992 51.7513Z" fill="#4D4BB7"/>
<path d="M113.35 51.7884L120.485 47.6428L122.326 48.7058L115.192 52.8521L113.35 51.7884Z" fill="#4D4BB7"/>
<path d="M138.025 73.1498L130.891 77.2962C131.017 77.2229 131.07 77.0342 131.012 76.7894L138.146 72.6431C138.204 72.8878 138.15 73.0765 138.025 73.1498Z" fill="#4D4BB7"/>
<path d="M130.449 74.4508L137.584 70.3044L138.146 72.643L131.012 76.7885L130.449 74.4508Z" fill="#4D4BB7"/>
<path d="M137.704 65.8128L130.57 69.9592C129.244 70.7305 127.408 70.6217 125.382 69.4524L132.517 65.3069C134.542 66.4753 136.378 66.5841 137.704 65.8128Z" fill="#4D4BB7"/>
<path d="M120.237 52.1715L127.371 48.0251C126.061 48.7865 125.248 50.4057 125.242 52.7063C125.228 57.3372 128.486 62.9799 132.516 65.3069L125.382 69.4524C121.351 67.1255 118.093 61.4827 118.106 56.8518C118.114 54.5512 118.926 52.9329 120.237 52.1715Z" fill="#4D4BB7"/>
<path d="M116.214 45.7831L123.348 41.6368C123.444 41.5807 123.572 41.5964 123.702 41.6714C123.803 41.7291 123.904 41.823 123.992 41.9474L116.857 46.0938C116.77 45.9694 116.669 45.8763 116.568 45.8178C116.438 45.7428 116.309 45.7271 116.214 45.7831Z" fill="#9996FF"/>
<path d="M141.728 72.2005L134.594 76.3469C134.611 76.337 134.629 76.3238 134.643 76.309L141.778 72.1626C141.762 72.1774 141.745 72.1898 141.728 72.2005Z" fill="#4D4BB7"/>
<path d="M116.857 46.0938L123.992 41.9474L125.479 44.0552L118.345 48.2007L116.857 46.0938Z" fill="#4D4BB7"/>
<path d="M118.345 48.2007L125.479 44.0551C126.09 43.7593 126.766 43.5813 127.492 43.5327L120.358 47.6791C119.632 47.7269 118.956 47.9057 118.345 48.2007Z" fill="#4D4BB7"/>
<path d="M136.437 74.5127L143.572 70.3663L141.778 72.1618L134.643 76.3082L136.437 74.5127Z" fill="#4D4BB7"/>
<path d="M143.464 69.5118L141.976 67.4041L134.842 71.5504L136.33 73.6582C136.551 73.9722 136.6 74.3561 136.439 74.5127L143.573 70.3663C143.735 70.2106 143.684 69.8258 143.464 69.5118Z" fill="#9996FF"/>
<path d="M135.616 69.277L142.75 65.1306C142.586 65.9925 142.325 66.7498 141.976 67.404L134.842 71.5504C135.19 70.8961 135.451 70.1389 135.616 69.277Z" fill="#4D4BB7"/>
<path d="M123.631 46.121L130.766 41.9746L131.328 44.3181L124.193 48.4644L123.631 46.121Z" fill="#4D4BB7"/>
<path d="M130.299 41.3088C130.247 41.2791 130.196 41.2585 130.144 41.2486L127.251 40.657C127.174 40.643 127.107 40.6529 127.054 40.6842L119.919 44.8297C119.973 44.7984 120.04 44.7877 120.116 44.8025L123.009 45.3942C123.061 45.404 123.113 45.4246 123.165 45.4543C123.373 45.5738 123.566 45.8391 123.632 46.1201L130.766 41.9746C130.7 41.6936 130.506 41.4282 130.299 41.3088Z" fill="#9996FF"/>
<path d="M144.948 66.2306L137.814 70.377C137.903 70.3251 137.958 70.2163 137.958 70.0614L145.092 65.915C145.092 66.0691 145.037 66.1787 144.948 66.2306Z" fill="#4D4BB7"/>
<path d="M124.193 48.4644L131.328 44.318C131.739 44.5017 132.15 44.702 132.574 44.9475C132.995 45.1898 133.405 45.4642 133.816 45.7542L126.682 49.9006C126.271 49.6105 125.86 49.3362 125.44 49.0939C125.015 48.8483 124.604 48.6481 124.193 48.4644Z" fill="#4D4BB7"/>
<path d="M134.87 61.4927L142.004 57.3463C142.348 58.4002 142.604 59.4566 142.763 60.5047L135.629 64.6511C135.47 63.6029 135.213 62.5474 134.87 61.4927Z" fill="#4D4BB7"/>
<path d="M137.967 66.5702L145.102 62.4238L145.092 65.9143L137.958 70.0607L137.967 66.5702Z" fill="#4D4BB7"/>
<path d="M144.605 61.5685L142.763 60.5055L135.629 64.6519L137.471 65.7148C137.747 65.8747 137.968 66.2521 137.967 66.5701L145.102 62.4238C145.102 62.1057 144.882 61.7291 144.605 61.5685Z" fill="#9996FF"/>
<path d="M130.509 53.5394L137.643 49.3931C138.366 50.278 139.039 51.2347 139.646 52.2342L132.512 56.3806C131.905 55.3819 131.232 54.4252 130.509 53.5394Z" fill="#4D4BB7"/>
<path d="M131.082 51.8568L138.217 47.7113L137.644 49.3939L130.509 53.5395L131.082 51.8568Z" fill="#4D4BB7"/>
<path d="M137.901 46.8056L135.013 44.06C134.961 44.0098 134.909 43.9702 134.858 43.9406C134.726 43.8648 134.601 43.854 134.509 43.9068L127.375 48.0523C127.466 47.9988 127.592 48.0103 127.723 48.0861C127.775 48.1158 127.828 48.1553 127.879 48.2056L130.766 50.9512C131.023 51.2008 131.166 51.6021 131.082 51.8567L138.216 47.7104C138.301 47.4566 138.158 47.0553 137.901 46.8056Z" fill="#9996FF"/>
<path d="M132.512 56.3805L139.647 52.2341L141.141 51.8485L134.007 55.9949L132.512 56.3805Z" fill="#4D4BB7"/>
<path d="M137.471 65.7148C137.747 65.8746 137.968 66.252 137.967 66.5701L137.957 70.0606C137.957 70.3737 137.734 70.5006 137.457 70.3399L135.616 69.2761C135.452 70.138 135.191 70.8953 134.842 71.5495L136.329 73.6573C136.55 73.9713 136.6 74.3552 136.438 74.5118L134.643 76.3073C134.545 76.4045 134.394 76.3996 134.24 76.3106C134.139 76.2529 134.038 76.159 133.95 76.0346L132.463 73.9276C131.852 74.2226 131.176 74.4014 130.45 74.45L131.012 76.7885C131.094 77.1387 130.95 77.3744 130.691 77.3208L127.798 76.7341C127.748 76.7234 127.698 76.7036 127.648 76.6748C127.438 76.5537 127.242 76.2867 127.176 76.009L126.614 73.6656C126.203 73.4818 125.793 73.2758 125.373 73.0336C124.947 72.788 124.537 72.5194 124.127 72.2293L123.553 73.9177C123.486 74.1188 123.289 74.1591 123.079 74.038C123.029 74.0092 122.979 73.9713 122.929 73.9243L120.041 71.1738C119.783 70.9291 119.641 70.5286 119.725 70.274L120.298 68.5914C119.575 67.7064 118.902 66.7497 118.295 65.7502L116.8 66.1358C116.713 66.1589 116.611 66.135 116.51 66.0773C116.357 65.9892 116.206 65.8194 116.108 65.6085L114.329 61.7497C114.169 61.4069 114.221 61.0806 114.442 61.0229L115.937 60.6373C115.593 59.5834 115.337 58.527 115.179 57.4789L113.337 56.4159C113.06 56.2561 112.84 55.8738 112.84 55.5606L112.85 52.0702C112.851 51.7521 113.074 51.631 113.35 51.7908L115.192 52.8546C115.356 51.9935 115.617 51.2355 115.966 50.5812L114.478 48.4734C114.258 48.1595 114.208 47.7755 114.37 47.614L116.164 45.8234C116.262 45.7262 116.414 45.7311 116.568 45.8201C116.669 45.8778 116.77 45.9717 116.857 46.0962L118.345 48.2031C118.956 47.9081 119.632 47.7293 120.358 47.6815L119.796 45.343C119.713 44.9928 119.858 44.7572 120.116 44.8058L123.009 45.3974C123.061 45.4073 123.113 45.4279 123.165 45.4576C123.373 45.577 123.566 45.8424 123.631 46.1234L124.193 48.4668C124.605 48.6506 125.015 48.8508 125.44 49.0964C125.86 49.3386 126.271 49.613 126.682 49.903L127.255 48.2147C127.322 48.0111 127.517 47.9691 127.724 48.0886C127.776 48.1183 127.829 48.1578 127.88 48.2081L130.766 50.9536C131.024 51.2033 131.167 51.6046 131.083 51.8592L130.509 53.5418C131.233 54.4268 131.905 55.3835 132.513 56.383L134.007 55.9974C134.095 55.9743 134.197 55.9982 134.297 56.0559C134.451 56.1448 134.602 56.3138 134.699 56.5247L136.478 60.3786C136.639 60.7263 136.587 61.0526 136.366 61.1103L134.871 61.4959C135.214 62.5498 135.471 63.6062 135.63 64.6543L137.471 65.7148ZM125.382 69.4524C129.408 71.777 132.687 69.9081 132.7 65.2772C132.714 60.6464 129.455 55.0036 125.43 52.6791C121.4 50.3521 118.121 52.221 118.108 56.8518C118.094 61.4827 121.352 67.1255 125.382 69.4524Z" fill="#6865F7"/>
<path d="M143.612 56.2298L141.834 52.3759C141.736 52.1658 141.585 51.996 141.432 51.9071C141.331 51.8494 141.23 51.8255 141.142 51.8486L134.007 55.9949C134.095 55.9718 134.197 55.9957 134.297 56.0534C134.451 56.1424 134.602 56.3113 134.699 56.5223L136.478 60.3761C136.624 60.6892 136.595 60.9851 136.427 61.0823L143.561 56.9359C143.729 56.8379 143.757 56.5429 143.612 56.2298Z" fill="#9996FF"/>
</svg>
